<?xml version="1.0" encoding="utf-8"?>
<!-- Generator: Adobe Illustrator 22.0.1, SVG Export Plug-In . SVG Version: 6.00 Build 0)  -->
<svg version="1.1" xmlns="http://www.w3.org/2000/svg" xmlns:xlink="http://www.w3.org/1999/xlink" x="0px" y="0px"
	 viewBox="0 0 1744.7 1206.3" style="enable-background:new 0 0 1744.7 1206.3;" xml:space="preserve">
<style type="text/css">
	.st0{fill:none;stroke:#000000;}
</style>
<g id="smaller_parts">
	<polyline class="st0" points="1383.6,537.3 1383.6,470.9 1383.6,470.7 1383.5,470.7 1360.9,470.7 1360.9,470.7 1360.9,474.3 
		1360.9,474.3 1352.4,474.3 1352.4,474.3 1352.4,470.7 1352.3,470.7 1332.5,470.7 1332.5,470.7 1332.5,462.2 1332.6,462.2 
		1352.4,462.2 1352.4,462.2 1352.4,458.7 1352.4,458.7 1360.9,458.7 1360.9,458.7 1360.9,462.2 1360.9,462.2 1383.6,462.2 
		1383.6,367.5 1383.6,367.3 1397.7,367.3 1397.7,367.3 1397.7,282.4 1397.7,282.2 1383.6,282.2 1383.6,282.2 1383.6,187.5 
		1383.6,187.3 1383.5,187.3 1360.9,187.3 1360.9,187.3 1360.9,190.8 1360.9,190.8 1352.4,190.8 1352.4,190.8 1352.4,187.3 
		1352.3,187.3 1332.5,187.3 1332.5,187.2 1332.5,178.8 1332.6,178.8 1352.4,178.8 1352.4,178.7 1352.4,175.2 1352.4,175.2 
		1360.9,175.2 1360.9,175.2 1360.9,178.8 1360.9,178.8 1383.6,178.8 1383.6,112.3 1383.6,112.1 	"/>
	<g>
		<polygon class="st0" points="131.2,958.3 131.2,958.3 131.5,957.6 131.5,957.6 132,957 132,957 132.5,956.5 132.5,956.5 
			133.1,956 133.1,956 133.8,955.7 133.8,955.7 134.5,955.5 134.5,955.5 135.2,955.5 135.2,955.5 136,955.5 136,955.5 136.7,955.7 
			136.7,955.7 137.3,956 137.3,956 137.9,956.5 137.9,956.5 138.5,957 138.5,957 138.9,957.6 138.9,957.6 139.2,958.3 139.2,958.3 
			139.4,959 139.4,959 139.5,959.7 139.5,959.7 139.4,960.5 139.4,960.5 139.2,961.2 139.2,961.2 138.9,961.9 138.9,961.9 
			138.5,962.5 138.5,962.5 137.9,963 137.9,963 137.3,963.4 137.3,963.4 136.7,963.7 136.7,963.7 136,963.9 135.9,963.9 135.2,964 
			135.2,964 134.5,963.9 134.5,963.9 133.8,963.7 133.8,963.7 133.1,963.4 133.1,963.4 132.5,963 132.5,963 132,962.5 132,962.5 
			131.5,961.9 131.5,961.9 131.2,961.2 131.2,961.2 131,960.5 131,960.5 131,959.7 131,959.7 131,959 131,959 		"/>
		<polygon class="st0" points="559.1,954.9 559.8,955.2 559.8,955.2 560.5,955.4 560.5,955.4 561.3,955.5 561.3,955.5 562,955.4 
			562,955.4 562.7,955.2 562.7,955.2 563.4,954.9 563.4,954.9 564,954.5 564,954.5 564.5,954 564.5,954 564.9,953.4 564.9,953.4 
			565.3,952.7 565.3,952.7 565.4,952 565.4,952 565.5,951.2 565.5,951.2 565.4,950.5 565.4,950.5 565.3,949.8 565.3,949.8 
			564.9,949.1 564.9,949.1 564.5,948.5 564.5,948.5 564,948 564,948 563.4,947.5 563.4,947.5 562.7,947.2 562.7,947.2 562,947 
			562,947 561.3,947 561.3,947 560.5,947 560.5,947 559.8,947.2 559.8,947.2 559.1,947.5 559.1,947.5 558.5,948 558.5,948 
			558,948.5 558,948.5 557.6,949.1 557.6,949.1 557.3,949.8 557.3,949.8 557.1,950.5 557.1,950.5 557,951.2 557,951.2 557.1,952 
			557.1,952 557.3,952.7 557.3,952.7 557.6,953.3 557.6,953.4 558,954 558,954 558.5,954.5 558.5,954.5 559.1,954.9 		"/>
		<polygon class="st0" points="352.1,961.3 352.1,961.3 352.4,960.6 352.4,960.6 352.6,959.9 352.6,959.9 352.6,959.2 352.6,959.2 
			352.6,958.4 352.6,958.4 352.4,957.7 352.4,957.7 352.1,957 352.1,957 351.6,956.4 351.6,956.4 351.1,955.9 351.1,955.9 
			350.5,955.5 350.5,955.5 349.8,955.2 349.8,955.2 349.1,955 349.1,955 348.4,954.9 348.4,954.9 347.6,955 347.6,955 346.9,955.2 
			346.9,955.2 346.3,955.5 346.3,955.5 345.6,955.9 345.6,955.9 345.1,956.4 345.1,956.4 344.7,957 344.7,957 344.4,957.7 
			344.4,957.7 344.2,958.4 344.2,958.4 344.1,959.2 344.1,959.2 344.2,959.9 344.2,959.9 344.4,960.6 344.4,960.6 344.7,961.3 
			344.7,961.3 345.1,961.9 345.1,961.9 345.6,962.4 345.6,962.4 346.3,962.8 346.3,962.8 346.9,963.2 346.9,963.2 347.6,963.3 
			347.6,963.3 348.4,963.4 348.4,963.4 349.1,963.3 349.1,963.3 349.8,963.2 349.8,963.2 350.5,962.8 350.5,962.8 351.1,962.4 
			351.1,962.4 351.6,961.9 351.6,961.9 		"/>
		<polygon class="st0" points="36.1,947 36.9,947 36.9,947 37.6,947 37.6,947 38.3,947.2 38.3,947.2 39,947.5 39,947.5 39.6,948 
			39.6,948 40.1,948.5 40.1,948.5 40.5,949.1 40.5,949.1 40.8,949.8 40.8,949.8 41,950.5 41,950.5 41.1,951.2 41.1,951.2 41,952 
			41,952 40.8,952.7 40.8,952.7 40.5,953.4 40.5,953.4 40.1,954 40.1,954 39.6,954.5 39.6,954.5 39,954.9 39,954.9 38.3,955.2 
			38.3,955.2 37.6,955.4 37.6,955.4 36.9,955.5 36.8,955.5 36.1,955.4 36.1,955.4 35.4,955.2 35.4,955.2 34.7,954.9 34.7,954.9 
			34.1,954.5 34.1,954.5 33.6,954 33.6,954 33.2,953.4 33.2,953.3 32.9,952.7 32.9,952.7 32.7,952 32.7,952 32.6,951.2 32.6,951.2 
			32.7,950.5 32.7,950.5 32.9,949.8 32.9,949.8 33.2,949.1 33.2,949.1 33.6,948.5 33.6,948.5 34.1,948 34.1,948 34.7,947.5 
			34.7,947.5 35.4,947.2 35.4,947.2 36.1,947 		"/>
		<polygon class="st0" points="345.3,1047.3 345.3,1047.3 345.3,1046.6 345.3,1046.6 345.5,1045.9 345.5,1045.9 345.8,1045.2 
			345.8,1045.2 346.3,1044.6 346.3,1044.6 346.8,1044.1 346.8,1044.1 347.4,1043.6 347.4,1043.6 348.1,1043.3 348.1,1043.3 
			348.8,1043.1 348.8,1043.1 349.5,1043.1 349.5,1043.1 350.2,1043.1 350.3,1043.1 351,1043.3 351,1043.3 351.6,1043.6 
			351.6,1043.6 352.2,1044.1 352.2,1044.1 352.8,1044.6 352.8,1044.6 353.2,1045.2 353.2,1045.2 353.5,1045.9 353.5,1045.9 
			353.7,1046.6 353.7,1046.6 353.8,1047.3 353.8,1047.3 353.7,1048.1 353.7,1048.1 353.5,1048.8 353.5,1048.8 353.2,1049.4 
			353.2,1049.4 352.8,1050.1 352.8,1050.1 352.2,1050.6 352.2,1050.6 351.6,1051 351.6,1051 351,1051.3 351,1051.3 350.2,1051.5 
			350.2,1051.5 349.5,1051.6 349.5,1051.6 348.8,1051.5 348.8,1051.5 348.1,1051.3 348.1,1051.3 347.4,1051 347.4,1051 
			346.8,1050.6 346.8,1050.6 346.3,1050.1 346.3,1050.1 345.8,1049.4 345.8,1049.4 345.5,1048.8 345.5,1048.8 345.3,1048.1 
			345.3,1048.1 		"/>
		<polygon class="st0" points="448.6,1012.3 450,1011.3 450,1011.3 451.2,1010 451.2,1010 452.2,1008.6 452.2,1008.6 452.9,1007.1 
			452.9,1007.1 453.4,1005.4 453.4,1005.4 453.5,1003.7 453.5,1003.7 453.4,1001.9 453.4,1001.9 452.9,1000.3 452.9,1000.3 
			452.2,998.7 452.2,998.7 451.2,997.3 451.2,997.3 450,996.1 450,996.1 448.6,995.1 448.6,995.1 447,994.3 447,994.3 445.3,993.9 
			445.3,993.9 443.6,993.7 443.6,993.7 441.9,993.9 441.9,993.9 440.2,994.3 440.2,994.3 438.7,995.1 438.7,995.1 437.2,996.1 
			437.2,996.1 436,997.3 436,997.3 435,998.7 435,998.7 434.3,1000.3 434.3,1000.3 433.9,1001.9 433.9,1001.9 433.7,1003.7 
			433.7,1003.7 433.9,1005.4 433.9,1005.4 434.3,1007.1 434.3,1007.1 435,1008.6 435,1008.6 436,1010 436,1010 437.2,1011.3 
			437.2,1011.3 438.7,1012.3 438.7,1012.3 440.2,1013 440.2,1013 441.9,1013.4 441.9,1013.4 443.6,1013.6 443.6,1013.6 
			445.3,1013.4 445.3,1013.4 447,1013 447,1013 448.6,1012.3 		"/>
		<polygon class="st0" points="37.6,1060.3 38.3,1060.1 38.3,1060.1 39,1059.8 39,1059.8 39.6,1059.4 39.6,1059.4 40.1,1058.8 
			40.1,1058.8 40.5,1058.2 40.5,1058.2 40.8,1057.6 40.8,1057.6 41,1056.8 41,1056.8 41.1,1056.1 41.1,1056.1 41,1055.4 41,1055.4 
			40.8,1054.7 40.8,1054.7 40.5,1054 40.5,1054 40.1,1053.4 40.1,1053.4 39.6,1052.9 39.6,1052.8 39,1052.4 39,1052.4 38.3,1052.1 
			38.3,1052.1 37.6,1051.9 37.6,1051.9 36.9,1051.9 36.9,1051.9 36.1,1051.9 36.1,1051.9 35.4,1052.1 35.4,1052.1 34.7,1052.4 
			34.7,1052.4 34.1,1052.8 34.1,1052.8 33.6,1053.4 33.6,1053.4 33.2,1054 33.2,1054 32.9,1054.7 32.9,1054.7 32.7,1055.4 
			32.7,1055.4 32.6,1056.1 32.6,1056.1 32.7,1056.8 32.7,1056.8 32.9,1057.6 32.9,1057.6 33.2,1058.2 33.2,1058.2 33.6,1058.8 
			33.6,1058.8 34.1,1059.4 34.1,1059.4 34.7,1059.8 34.7,1059.8 35.4,1060.1 35.4,1060.1 36.1,1060.3 36.1,1060.3 36.8,1060.4 
			36.9,1060.4 37.6,1060.3 		"/>
		<polygon class="st0" points="136.8,1052.1 137.5,1051.9 137.5,1051.9 138.2,1051.6 138.2,1051.6 138.8,1051.1 138.8,1051.1 
			139.3,1050.6 139.3,1050.6 139.7,1050 139.7,1050 140.1,1049.3 140.1,1049.3 140.3,1048.6 140.3,1048.6 140.3,1047.9 
			140.3,1047.9 140.3,1047.1 140.3,1047.1 140.1,1046.4 140.1,1046.4 139.7,1045.8 139.7,1045.8 139.3,1045.2 139.3,1045.2 
			138.8,1044.6 138.8,1044.6 138.2,1044.2 138.2,1044.2 137.5,1043.9 137.5,1043.9 136.8,1043.7 136.8,1043.7 136.1,1043.6 
			136.1,1043.6 135.3,1043.7 135.3,1043.7 134.6,1043.9 134.6,1043.9 133.9,1044.2 133.9,1044.2 133.3,1044.6 133.3,1044.6 
			132.8,1045.2 132.8,1045.2 132.4,1045.8 132.4,1045.8 132.1,1046.4 132.1,1046.4 131.9,1047.1 131.9,1047.1 131.8,1047.9 
			131.8,1047.9 131.9,1048.6 131.9,1048.6 132.1,1049.3 132.1,1049.3 132.4,1050 132.4,1050 132.8,1050.6 132.8,1050.6 
			133.3,1051.1 133.3,1051.1 133.9,1051.6 133.9,1051.6 134.6,1051.9 134.6,1051.9 135.3,1052.1 135.3,1052.1 136.1,1052.1 
			136.1,1052.1 136.8,1052.1 		"/>
		<polygon class="st0" points="562,1060.3 562.7,1060.1 562.7,1060.1 563.4,1059.8 563.4,1059.8 564,1059.4 564,1059.4 
			564.5,1058.8 564.5,1058.8 564.9,1058.2 564.9,1058.2 565.3,1057.6 565.3,1057.6 565.4,1056.8 565.4,1056.8 565.5,1056.1 
			565.5,1056.1 565.4,1055.4 565.4,1055.4 565.3,1054.7 565.3,1054.7 564.9,1054 564.9,1054 564.5,1053.4 564.5,1053.4 564,1052.9 
			564,1052.8 563.4,1052.4 563.4,1052.4 562.7,1052.1 562.7,1052.1 562,1051.9 562,1051.9 561.3,1051.9 561.3,1051.9 560.5,1051.9 
			560.5,1051.9 559.8,1052.1 559.8,1052.1 559.1,1052.4 559.1,1052.4 558.5,1052.8 558.5,1052.8 558,1053.4 558,1053.4 557.6,1054 
			557.6,1054 557.3,1054.7 557.3,1054.7 557.1,1055.4 557.1,1055.4 557,1056.1 557,1056.1 557.1,1056.8 557.1,1056.8 557.3,1057.6 
			557.3,1057.6 557.6,1058.2 557.6,1058.2 558,1058.8 558,1058.8 558.5,1059.4 558.5,1059.4 559.1,1059.8 559.1,1059.8 
			559.8,1060.1 559.8,1060.1 560.5,1060.3 560.5,1060.3 561.3,1060.4 561.3,1060.4 562,1060.3 		"/>
		<polygon class="st0" points="29.8,932.8 29.8,1074.2 29.8,1074.5 567.3,1074.5 568.3,1074.5 568.3,933.1 568.3,932.8 30.8,932.8 
					"/>
		<polygon class="st0" points="355.3,966.8 140.3,966.8 140.3,967 140.3,1037.7 140.7,1037.7 355.7,1037.7 355.7,1037.5 
			355.7,966.8 		"/>
		<polygon class="st0" points="426.9,1038.6 426.9,1038.5 427.2,1037.9 427.2,1037.9 427.4,1037.2 427.4,1037.2 427.5,1036.4 
			427.5,1036.4 427.4,1035.7 427.4,1035.7 427.2,1035 427.2,1035 426.9,1034.3 426.9,1034.3 426.5,1033.7 426.5,1033.7 426,1033.2 
			426,1033.2 425.4,1032.7 425.4,1032.7 424.7,1032.4 424.7,1032.4 424,1032.2 424,1032.2 423.2,1032.2 423.2,1032.2 422.5,1032.2 
			422.5,1032.2 421.8,1032.4 421.8,1032.4 421.1,1032.7 421.1,1032.7 420.5,1033.2 420.5,1033.2 420,1033.7 420,1033.7 
			419.5,1034.3 419.5,1034.3 419.2,1035 419.2,1035 419,1035.7 419,1035.7 419,1036.4 419,1036.4 419,1037.2 419,1037.2 
			419.2,1037.9 419.2,1037.9 419.5,1038.5 419.5,1038.5 420,1039.2 420,1039.2 420.5,1039.7 420.5,1039.7 421.1,1040.1 
			421.1,1040.1 421.8,1040.4 421.8,1040.4 422.5,1040.6 422.5,1040.6 423.2,1040.7 423.2,1040.7 424,1040.6 424,1040.6 
			424.7,1040.4 424.7,1040.4 425.4,1040.1 425.4,1040.1 426,1039.7 426,1039.7 426.5,1039.2 426.5,1039.2 		"/>
		<polygon class="st0" points="468,1038.6 468,1038.5 468.3,1037.9 468.3,1037.9 468.5,1037.2 468.5,1037.2 468.6,1036.4 
			468.6,1036.4 468.5,1035.7 468.5,1035.7 468.3,1035 468.3,1035 468,1034.3 468,1034.3 467.6,1033.7 467.6,1033.7 467.1,1033.2 
			467.1,1033.2 466.5,1032.7 466.5,1032.7 465.8,1032.4 465.8,1032.4 465.1,1032.2 465.1,1032.2 464.3,1032.2 464.3,1032.2 
			463.6,1032.2 463.6,1032.2 462.9,1032.4 462.9,1032.4 462.2,1032.7 462.2,1032.7 461.6,1033.2 461.6,1033.2 461.1,1033.7 
			461.1,1033.7 460.6,1034.3 460.6,1034.3 460.3,1035 460.3,1035 460.1,1035.7 460.1,1035.7 460.1,1036.4 460.1,1036.4 
			460.1,1037.2 460.1,1037.2 460.3,1037.9 460.3,1037.9 460.6,1038.5 460.6,1038.5 461.1,1039.2 461.1,1039.2 461.6,1039.7 
			461.6,1039.7 462.2,1040.1 462.2,1040.1 462.9,1040.4 462.9,1040.4 463.6,1040.6 463.6,1040.6 464.3,1040.7 464.3,1040.7 
			465.1,1040.6 465.1,1040.6 465.8,1040.4 465.8,1040.4 466.5,1040.1 466.5,1040.1 467.1,1039.7 467.1,1039.7 467.6,1039.2 
			467.6,1039.2 		"/>
	</g>
	<path class="st0" d="M154.7,992l0.6,2.4l0,0l1,2.2l0,0l1.4,2l0,0l1.7,1.7l0,0l2,1.4l0,0l2.2,1l0,0l2.4,0.6h0l2.5,0.2h56.6h0.1h0
		l2.5-0.2h0l2.4-0.6h0l2.2-1l0,0l2-1.4l0,0l1.7-1.7l0,0l1.4-2l0,0l1-2.2l0,0l0.6-2.4v0l0.2-2.5v0l-0.2-2.5l0,0l-0.6-2.4l0,0l-1-2.2
		l0,0l-1.4-2l0,0l-1.7-1.7l0,0l-2-1.4l0,0l-2.2-1l0,0l-2.4-0.6h0l-2.5-0.2h-56.6h-0.1h0l-2.5,0.2h0l-2.4,0.6h0l-2.2,1l0,0l-2,1.4
		l0,0l-1.7,1.7l0,0l-1.4,2l0,0l-1,2.2l0,0l-0.6,2.4l0,0l-0.2,2.5v0L154.7,992L154.7,992z M226.8,985.5l-0.7-0.2h0l-0.7-0.1h0
		l-0.7,0.1h0l-0.7,0.2h0l-0.7,0.3h0l-0.6,0.4h0l-0.5,0.5l0,0l-0.4,0.6h0l-0.3,0.7l0,0l-0.2,0.7v0l-0.1,0.7v0l0.1,0.7l0,0l0.2,0.7
		l0,0l0.3,0.7l0,0l0.4,0.6l0,0l0.5,0.5h0l0.6,0.4h0l0.7,0.3l0,0l0.7,0.2h0l0.7,0.1h0l0.7-0.1h0l0.7-0.2h0l0.7-0.3h0l0.6-0.4h0
		l0.5-0.5l0,0l0.4-0.6l0,0l0.3-0.7v0l0.2-0.7l0,0l0.1-0.7v0l-0.1-0.7l0,0l-0.2-0.7h0l-0.3-0.7h0l-0.4-0.6h0l-0.5-0.5h0l-0.6-0.4h0
		L226.8,985.5L226.8,985.5z M193.3,987.4L193.3,987.4l0.4-0.6l0,0l0.5-0.5h0l0.6-0.4h0l0.7-0.3h0l0.7-0.2h0l0.7-0.1h0l0.7,0.1h0
		l0.7,0.2l0,0l0.7,0.3h0l0.6,0.4h0l0.5,0.5h0l0.4,0.6l0,0l0.3,0.7l0,0l0.2,0.7l0,0l0.1,0.7v0l-0.1,0.7v0l-0.2,0.7l0,0l-0.3,0.7h0
		l-0.4,0.6l0,0l-0.5,0.5h0l-0.6,0.4h0l-0.7,0.3h0l-0.7,0.2h0l-0.7,0.1h0l-0.7-0.1h0l-0.7-0.2l0,0l-0.7-0.3h0l-0.6-0.4h0l-0.5-0.5h0
		l-0.4-0.6l0,0l-0.3-0.7h0l-0.2-0.7l0,0l-0.1-0.7v0l0.1-0.7l0,0l0.2-0.7v0L193.3,987.4z M165,987.4l0.4-0.6l0,0l0.5-0.5h0l0.6-0.4h0
		l0.7-0.3h0l0.7-0.2h0l0.7-0.1h0l0.7,0.1h0l0.7,0.2l0,0l0.7,0.3h0l0.6,0.4h0l0.5,0.5h0l0.4,0.6h0l0.3,0.7l0,0l0.2,0.7l0.1,0.7v0v0
		l-0.1,0.7v0l-0.2,0.7l0,0l-0.3,0.7h0l-0.4,0.6l0,0l-0.5,0.5h0l-0.6,0.4h0l-0.7,0.3h0l-0.7,0.2h0l-0.7,0.1h0l-0.7-0.1h0l-0.7-0.2
		l0,0l-0.7-0.3h0l-0.6-0.4h0l-0.5-0.5h0l-0.4-0.6h0l-0.3-0.7h0l-0.2-0.7l0,0l-0.1-0.7v0l0.1-0.7l0,0l0.2-0.7l0,0L165,987.4
		L165,987.4z"/>
	<path class="st0" d="M335.7,1011.1l-0.6-2.4l0,0l-1-2.2l0,0l-1.4-2l0,0l-1.7-1.7l0,0l-2-1.4l0,0l-2.2-1l0,0l-2.4-0.6h0l-2.5-0.2
		h-56.6H265h0l-2.5,0.2h0l-2.4,0.6h0l-2.2,1l0,0l-2,1.4l0,0l-1.7,1.7l0,0l-1.4,2l0,0l-1,2.2l0,0l-0.6,2.4v0l-0.2,2.5v0l0.2,2.5l0,0
		l0.6,2.4l0,0l1,2.2l0,0l1.4,2l0,0l1.7,1.7l0,0l2,1.4l0,0l2.2,1l0,0l2.4,0.6h0l2.5,0.2h56.6h0.1h0l2.5-0.2h0l2.4-0.6h0l2.2-1l0,0
		l2-1.4l0,0l1.7-1.7l0,0l1.4-2l0,0l1-2.2l0,0l0.6-2.4l0,0l0.2-2.5v0L335.7,1011.1L335.7,1011.1z M263.6,1017.6l0.7,0.2h0l0.7,0.1h0
		l0.7-0.1h0l0.7-0.2h0l0.7-0.3h0l0.6-0.4h0l0.5-0.5l0,0l0.4-0.6h0l0.3-0.7l0,0l0.2-0.7v0l0.1-0.7v0l-0.1-0.7l0,0l-0.2-0.7l0,0
		l-0.3-0.7l0,0l-0.4-0.6l0,0l-0.5-0.5h0l-0.6-0.4h0l-0.7-0.3l0,0l-0.7-0.2h0l-0.7-0.1h0l-0.7,0.1h0l-0.7,0.2h0l-0.7,0.3h0l-0.6,0.4
		h0l-0.5,0.5l0,0l-0.4,0.6l0,0l-0.3,0.7v0l-0.2,0.7l0,0l-0.1,0.7v0l0.1,0.7l0,0l0.2,0.7h0l0.3,0.7h0l0.4,0.6h0l0.5,0.5h0l0.6,0.4h0
		L263.6,1017.6L263.6,1017.6z M297.1,1015.7L297.1,1015.7l-0.4,0.6l0,0l-0.5,0.5h0l-0.6,0.4h0l-0.7,0.3h0l-0.7,0.2h0l-0.7,0.1h0
		l-0.7-0.1h0l-0.7-0.2l0,0l-0.7-0.3h0l-0.6-0.4h0l-0.5-0.5h0l-0.4-0.6l0,0l-0.3-0.7l0,0l-0.2-0.7l0,0l-0.1-0.7v0l0.1-0.7v0l0.2-0.7
		l0,0l0.3-0.7h0l0.4-0.6l0,0l0.5-0.5h0l0.6-0.4h0l0.7-0.3h0l0.7-0.2h0l0.7-0.1h0l0.7,0.1h0l0.7,0.2l0,0l0.7,0.3h0l0.6,0.4h0l0.5,0.5
		h0l0.4,0.6l0,0l0.3,0.7h0l0.2,0.7l0,0l0.1,0.7v0l-0.1,0.7l0,0l-0.2,0.7v0L297.1,1015.7z M325.4,1015.7l-0.4,0.6l0,0l-0.5,0.5h0
		l-0.6,0.4h0l-0.7,0.3h0l-0.7,0.2h0l-0.7,0.1h0l-0.7-0.1h0l-0.7-0.2l0,0l-0.7-0.3h0l-0.6-0.4h0l-0.5-0.5h0l-0.4-0.6h0l-0.3-0.7l0,0
		l-0.2-0.7l-0.1-0.7v0v0l0.1-0.7v0l0.2-0.7l0,0l0.3-0.7h0l0.4-0.6l0,0l0.5-0.5h0l0.6-0.4h0l0.7-0.3h0l0.7-0.2h0l0.7-0.1h0l0.7,0.1h0
		l0.7,0.2l0,0l0.7,0.3h0l0.6,0.4h0l0.5,0.5h0l0.4,0.6h0l0.3,0.7h0l0.2,0.7l0,0l0.1,0.7v0l-0.1,0.7l0,0l-0.2,0.7l0,0L325.4,1015.7
		L325.4,1015.7z"/>
	<polygon class="st0" points="165.1,903.1 165.1,903.1 164.5,903.5 164.5,903.5 164,904 164,904 163.6,904.6 163.6,904.6 
		163.3,905.3 163.2,905.3 163.1,906 163.1,906 163,906.7 163,906.7 163.1,907.4 163.1,907.4 163.2,908.1 163.2,908.1 163.6,908.8 
		163.6,908.8 164,909.4 164,909.4 164.5,909.9 164.5,909.9 165.1,910.3 165.1,910.3 165.8,910.6 165.8,910.6 166.5,910.8 
		166.5,910.8 167.2,910.9 167.2,910.9 168,910.8 168,910.8 168.7,910.6 168.7,910.6 169.4,910.3 169.4,910.3 170,909.9 170,909.9 
		170.5,909.4 170.5,909.4 170.9,908.8 170.9,908.8 171.2,908.1 171.2,908.1 171.4,907.4 171.4,907.4 171.5,906.7 171.5,906.7 
		171.4,906 171.4,906 171.2,905.3 171.2,905.3 170.9,904.6 170.9,904.6 170.5,904 170.5,904 170,903.5 170,903.5 169.4,903.1 
		169.4,903.1 168.7,902.8 168.7,902.8 168,902.6 168,902.6 167.2,902.5 167.2,902.5 166.5,902.6 166.5,902.6 165.8,902.8 
		165.8,902.8 	"/>
	<polygon class="st0" points="426.7,907.4 426.9,908.1 426.9,908.1 427.2,908.8 427.2,908.8 427.6,909.4 427.6,909.4 428.1,909.9 
		428.1,909.9 428.7,910.3 428.7,910.3 429.4,910.6 429.4,910.6 430.1,910.8 430.1,910.8 430.9,910.9 430.9,910.9 431.6,910.8 
		431.6,910.8 432.3,910.6 432.3,910.6 433,910.3 433,910.3 433.6,909.9 433.6,909.9 434.1,909.4 434.1,909.4 434.5,908.8 
		434.5,908.8 434.9,908.1 434.9,908.1 435.1,907.4 435.1,907.4 435.1,906.7 435.1,906.7 435.1,906 435.1,906 434.9,905.3 
		434.9,905.3 434.5,904.6 434.5,904.6 434.1,904 434.1,904 433.6,903.5 433.6,903.5 433,903.1 433,903.1 432.3,902.8 432.3,902.8 
		431.6,902.6 431.6,902.6 430.9,902.5 430.9,902.5 430.1,902.6 430.1,902.6 429.4,902.8 429.4,902.8 428.7,903.1 428.7,903.1 
		428.1,903.5 428.1,903.5 427.6,904 427.6,904 427.2,904.6 427.2,904.6 426.9,905.3 426.9,905.3 426.7,906 426.7,906 426.6,906.7 
		426.6,906.7 426.7,907.4 	"/>
	<polygon class="st0" points="159.3,858 157.5,859.8 157.5,859.8 156,861.9 156,861.9 154.9,864.2 154.9,864.2 154.2,866.6 
		154.2,866.6 154,869.2 154,869.2 154.2,871.7 154.2,871.7 154.9,874.2 154.9,874.2 156,876.5 156,876.5 157.5,878.5 157.5,878.6 
		159.3,880.3 159.3,880.4 161.4,881.8 161.4,881.8 163.8,882.9 163.8,882.9 166.3,883.5 166.3,883.5 168.9,883.8 168.9,883.8 
		171.5,883.5 171.5,883.5 174,882.9 174,882.9 176.3,881.8 176.3,881.8 178.4,880.4 178.4,880.4 180.3,878.6 180.3,878.6 
		181.8,876.5 181.8,876.5 182.9,874.2 182.9,874.2 183.5,871.7 183.5,871.7 183.8,869.2 183.8,869.2 183.5,866.6 183.5,866.6 
		182.9,864.2 182.9,864.2 181.8,861.9 181.8,861.9 180.3,859.8 180.3,859.8 178.4,858 178.4,858 176.3,856.5 176.3,856.5 174,855.5 
		174,855.5 171.5,854.8 171.5,854.8 168.9,854.6 168.9,854.6 166.3,854.8 166.3,854.8 163.8,855.5 163.8,855.5 161.4,856.5 
		161.4,856.5 159.3,858 	"/>
	<polygon class="st0" points="429.4,725.8 429.4,725.8 428.7,725.5 428.7,725.5 428.1,725.1 428.1,725.1 427.6,724.6 427.6,724.6 
		427.2,724 427.2,724 426.9,723.3 426.9,723.3 426.7,722.6 426.7,722.6 426.6,721.9 426.6,721.9 426.7,721.2 426.7,721.2 
		426.9,720.5 426.9,720.5 427.2,719.8 427.2,719.8 427.6,719.2 427.6,719.2 428.1,718.7 428.1,718.7 428.7,718.3 428.7,718.3 
		429.4,718 429.4,718 430.1,717.8 430.1,717.8 430.9,717.7 430.9,717.7 431.6,717.8 431.6,717.8 432.3,718 432.3,718 433,718.3 
		433,718.3 433.6,718.7 433.6,718.7 434.1,719.2 434.1,719.2 434.5,719.8 434.5,719.8 434.9,720.5 434.9,720.5 435.1,721.2 
		435.1,721.2 435.1,721.9 435.1,721.9 435.1,722.6 435.1,722.6 434.9,723.3 434.9,723.3 434.5,724 434.5,724 434.1,724.6 
		434.1,724.6 433.6,725.1 433.6,725.1 433,725.5 433,725.5 432.3,725.8 432.3,725.8 431.6,726 431.6,726 430.9,726.1 430.9,726.1 
		430.1,726 430.1,726 	"/>
	<polygon class="st0" points="170.9,724 170.5,724.6 170.5,724.6 170,725.1 170,725.1 169.4,725.5 169.4,725.5 168.7,725.8 
		168.7,725.8 168,726 168,726 167.2,726.1 167.2,726.1 166.5,726 166.5,726 165.8,725.8 165.8,725.8 165.1,725.5 165.1,725.5 
		164.5,725.1 164.5,725.1 164,724.6 164,724.6 163.6,724 163.6,724 163.2,723.3 163.2,723.3 163.1,722.6 163.1,722.6 163,721.9 
		163,721.9 163.1,721.2 163.1,721.2 163.2,720.5 163.3,720.5 163.6,719.8 163.6,719.8 164,719.2 164,719.2 164.5,718.7 164.5,718.7 
		165.1,718.3 165.1,718.3 165.8,718 165.8,718 166.5,717.8 166.5,717.8 167.2,717.7 167.2,717.7 168,717.8 168,717.8 168.7,718 
		168.7,718 169.4,718.3 169.4,718.3 170,718.7 170,718.7 170.5,719.2 170.5,719.2 170.9,719.8 170.9,719.8 171.2,720.5 171.2,720.5 
		171.4,721.2 171.4,721.2 171.5,721.9 171.5,721.9 171.4,722.6 171.4,722.6 171.2,723.3 171.2,723.3 170.9,724 	"/>
	<polygon class="st0" points="412.4,844.2 412.4,878.9 412.6,878.9 467.7,878.9 467.7,878.8 467.7,844.2 467.6,844.2 412.4,844.2 	
		"/>
	<polygon class="st0" points="256.7,913.7 341.6,913.7 341.6,913.6 341.6,899.8 341.4,899.8 256.5,899.8 256.5,899.8 256.5,913.7 	
		"/>
	<polyline class="st0" points="554.2,751.8 554.2,715 342,715 341.6,715 341.6,728.8 341.6,728.9 256.7,728.9 256.5,728.9 
		256.5,715 256.5,715 44.4,715 43.9,715 43.9,751.8 43.9,793.4 43.9,793.5 29.8,793.5 29.8,793.5 29.8,848.9 29.8,849.1 43.9,849.1 
		43.9,849.1 43.9,890.7 43.9,890.8 43.9,927.6 553.2,927.6 554.2,927.6 554.2,890.8 554.2,849.1 554.2,849.1 568.3,849.1 
		568.3,849.1 568.3,793.6 568.3,793.5 554.2,793.5 554.2,793.5 554.2,751.8 554.2,751.8 	"/>
	<g>
		<path class="st0" d="M918.4,913.4h-0.2h-84.9v0v14.1h0.2h84.9v0V913.4z M691.1,922.6l-0.4,0.6v0l-0.5,0.5v0l-0.6,0.4v0l-0.7,0.3v0
			l-0.7,0.2v0l-0.7,0.1l0,0l-0.7-0.1l0,0l-0.7-0.2l0,0l-0.7-0.3v0l-0.6-0.4l0,0l-0.5-0.5v0l-0.4-0.6v0l-0.3-0.7v0l-0.2-0.7v0
			l-0.1-0.7v0l0.1-0.7v0l0.2-0.7l0,0l0.3-0.7v0l0.4-0.6v0l0.5-0.5v0l0.6-0.4v0l0.7-0.3v0l0.7-0.2v0l0.7-0.1l0,0l0.7,0.1l0,0l0.7,0.2
			l0,0l0.7,0.3v0l0.6,0.4l0,0l0.5,0.5v0l0.4,0.6v0l0.3,0.7v0l0.2,0.7v0l0.1,0.7v0l-0.1,0.7v0l-0.2,0.7l0,0L691.1,922.6L691.1,922.6z
			 M1062.3,916.8l0.7-0.3l0,0l0.7-0.2l0,0l0.7-0.1l0,0l0.7,0.1l0,0l0.7,0.2l0,0l0.7,0.3l0,0l0.6,0.4l0,0l0.5,0.5l0,0l0.4,0.6l0,0
			l0.3,0.7l0,0l0.2,0.7l0,0l0.1,0.7v0l-0.1,0.7l0,0l-0.2,0.7l0,0l-0.3,0.7l0,0l-0.4,0.6l0,0l-0.5,0.5l0,0l-0.6,0.4l0,0l-0.7,0.3l0,0
			l-0.7,0.2l0,0l-0.7,0.1l0,0l-0.7-0.1l0,0l-0.7-0.2l0,0l-0.7-0.3l0,0l-0.6-0.4l0,0l-0.5-0.5l0,0l-0.4-0.6l0,0l-0.3-0.7l0,0
			l-0.2-0.7l0,0l-0.1-0.7v0l0.1-0.7l0,0l0.2-0.7l0,0l0.3-0.7l0,0l0.4-0.6l0,0l0.5-0.5l0,0L1062.3,916.8L1062.3,916.8z M971.9,733.5
			l-0.4,0.6l0,0l-0.3,0.7l0,0l-0.2,0.7l0,0l-0.1,0.7v0l0.1,0.7l0,0l0.2,0.7l0,0l0.3,0.7l0,0l0.4,0.6l0,0l0.5,0.5l0,0l0.6,0.4l0,0
			l0.7,0.3l0,0l0.7,0.2l0,0l0.7,0.1h0l0.7-0.1l0,0l0.7-0.2l0,0l0.7-0.3l0,0l0.6-0.4l0,0l0.5-0.5l0,0l0.4-0.6l0,0l0.3-0.7l0,0
			l0.2-0.7l0,0l0.1-0.7v0l-0.1-0.7l0,0l-0.2-0.7l0,0l-0.3-0.7l0,0l-0.4-0.6l0,0l-0.5-0.5l0,0l-0.6-0.4l0,0l-0.7-0.3l0,0l-0.7-0.2
			l0,0l-0.7-0.1h0l-0.7,0.1l0,0l-0.7,0.2l0,0l-0.7,0.3l0,0l-0.6,0.4l0,0L971.9,733.5L971.9,733.5z M688.4,738.9L688.4,738.9l0.5,0.5
			l0,0l0.6,0.4v0l0.7,0.3l0,0l0.7,0.2l0,0l0.7,0.1h0l0.7-0.1v0l0.7-0.2v0l0.7-0.3v0l0.6-0.4v0l0.5-0.5v0l0.4-0.6v0l0.3-0.7l0,0
			l0.2-0.7v0l0.1-0.7v0l-0.1-0.7v0l-0.2-0.7v0l-0.3-0.7v0l-0.4-0.6v0l-0.5-0.5l0,0l-0.6-0.4v0l-0.7-0.3l0,0l-0.7-0.2l0,0l-0.7-0.1h0
			l-0.7,0.1v0l-0.7,0.2v0l-0.7,0.3v0l-0.6,0.4v0l-0.5,0.5v0l-0.4,0.6v0l-0.3,0.7l0,0l-0.2,0.7v0l-0.1,0.7v0l0.1,0.7v0l0.2,0.7v0
			l0.3,0.7v0L688.4,738.9z M581.1,748.2l-0.9,0.4l0,0l-1,0.3v0l-1,0.1l0,0l-1-0.1l0,0l-1-0.3l0,0l-0.9-0.4l0,0l-0.8-0.6v0l-0.7-0.7
			v0l-0.6-0.8v0l-0.4-0.9l0,0l-0.3-1v0l-0.1-1v0l0.1-1l0,0l0.3-1v0l0.4-0.9v0l0.6-0.8v0l0.7-0.7l0,0l0.8-0.6l0,0l0.9-0.4l0,0l1-0.3
			v0l1-0.1l0,0l1,0.1l0,0l1,0.3l0,0l0.9,0.4l0,0l0.8,0.6v0l0.7,0.7v0l0.6,0.8v0l0.4,0.9l0,0l0.3,1v0l0.1,1v0l-0.1,1l0,0l-0.3,1v0
			l-0.4,0.9v0l-0.6,0.8v0l-0.7,0.7l0,0L581.1,748.2L581.1,748.2z M1131,842.5l-8.5-11.3l0,0l-6.8,5.1l0,0l0,0l2.1,2.8l0,0l-6.8,5.1
			l0,0l-2.1-2.8l0,0l-6.8,5.1l0,0l-5.1-6.8l0,0l6.8-5.1l0,0l-2.1-2.8l0,0l6.8-5.1l0,0l2.1,2.8l0,0l6.8-5.1l-57.7-76.9l-0.1-0.2l0,0
			l-6.3,4.8l0,0l2.1,2.8l0,0l-6.8,5.1l0,0l-2.1-2.8l0,0l-6.8,5.1l0,0l-5.1-6.8l0,0l6.8-5.1l0,0l-2.1-2.8l0,0l6.8-5.1l0,0l2.1,2.8
			l0,0l6.3-4.8l-8.5-11.3l0,0h-99h-0.2l0,0l-0.2-2.5l0,0l-0.6-2.4l0,0l-1-2.2l0,0l-1.4-2l0,0l-1.7-1.7l0,0l-2-1.4l0,0l-2.2-1l0,0
			l-2.4-0.6l0,0l-2.5-0.2l0,0l-2.5,0.2l0,0l-2.4,0.6l0,0l-2.2,1l0,0l-2,1.4l0,0l-1.7,1.7l0,0l-1.4,2l0,0l-1,2.2l0,0l-0.6,2.4l0,0
			l-0.2,2.5H876h-0.1v14.1v0H791h-0.2v-14.1v0H564.5h-0.5v28.3v0.1h28.3h0.1v85 M592.4,913.4v28.1v0.2h537.5h1.1 M620.8,806.7v56.6
			v0.1h-14.1h0v-56.6v-0.1H620.8L620.8,806.7z M1136,888.4l0.7-0.3l0,0l0.7-0.2l0,0l0.7-0.1l0,0l0.7,0.1l0,0l0.7,0.2l0,0l0.7,0.3
			l0,0l0.6,0.4l0,0l0.5,0.5l0,0l0.4,0.6l0,0l0.3,0.7l0,0l0.2,0.7l0,0l0.1,0.7v0l-0.1,0.7l0,0l-0.2,0.7l0,0l-0.3,0.7l0,0l-0.4,0.6
			l0,0l-0.5,0.5l0,0l-0.6,0.4l0,0l-0.7,0.3l0,0l-0.7,0.2l0,0l-0.7,0.1l0,0l-0.7-0.1l0,0l-0.7-0.2l0,0l-0.7-0.3l0,0l-0.6-0.4l0,0
			l-0.5-0.5l0,0l-0.4-0.6l0,0l-0.3-0.7l0,0l-0.2-0.7l0,0l-0.1-0.7v0l0.1-0.7l0,0l0.2-0.7l0,0l0.3-0.7l0,0l0.4-0.6l0,0l0.5-0.5l0,0
			L1136,888.4L1136,888.4z"/>
		<path class="st0" d="M592.4,842.5v70.9V842.5z"/>
		<polyline class="st0" points="1131,842.5 1131,870.9 1145.2,870.9 1145.2,913.4 1131,913.4 1131,941.7 		"/>
	</g>
	<g>
		<g>
			<path class="st0" d="M927.5,1145.4h-0.2h-84.9v0v14.1h0.2h84.9v0V1145.4z M700.2,1154.6l-0.4,0.6v0l-0.5,0.5v0l-0.6,0.4v0
				l-0.7,0.3v0l-0.7,0.2v0l-0.7,0.1l0,0l-0.7-0.1l0,0l-0.7-0.2l0,0l-0.7-0.3v0l-0.6-0.4l0,0l-0.5-0.5v0l-0.4-0.6v0l-0.3-0.7v0
				l-0.2-0.7v0l-0.1-0.7v0l0.1-0.7v0l0.2-0.7l0,0l0.3-0.7v0l0.4-0.6v0l0.5-0.5v0l0.6-0.4v0l0.7-0.3v0l0.7-0.2v0l0.7-0.1l0,0l0.7,0.1
				l0,0l0.7,0.2l0,0l0.7,0.3v0l0.6,0.4l0,0l0.5,0.5v0l0.4,0.6v0l0.3,0.7v0l0.2,0.7v0l0.1,0.7v0l-0.1,0.7v0l-0.2,0.7l0,0
				L700.2,1154.6L700.2,1154.6z M1071.4,1148.8l0.7-0.3l0,0l0.7-0.2l0,0l0.7-0.1l0,0l0.7,0.1l0,0l0.7,0.2l0,0l0.7,0.3l0,0l0.6,0.4
				l0,0l0.5,0.5l0,0l0.4,0.6l0,0l0.3,0.7l0,0l0.2,0.7l0,0l0.1,0.7v0l-0.1,0.7l0,0l-0.2,0.7l0,0l-0.3,0.7l0,0l-0.4,0.6l0,0l-0.5,0.5
				l0,0l-0.6,0.4l0,0l-0.7,0.3l0,0l-0.7,0.2l0,0l-0.7,0.1l0,0l-0.7-0.1l0,0l-0.7-0.2l0,0l-0.7-0.3l0,0l-0.6-0.4l0,0l-0.5-0.5l0,0
				l-0.4-0.6l0,0l-0.3-0.7l0,0l-0.2-0.7l0,0l-0.1-0.7v0l0.1-0.7l0,0l0.2-0.7l0,0l0.3-0.7l0,0l0.4-0.6l0,0l0.5-0.5l0,0L1071.4,1148.8
				L1071.4,1148.8z M980.9,965.5l-0.4,0.6l0,0l-0.3,0.7l0,0l-0.2,0.7l0,0l-0.1,0.7v0l0.1,0.7l0,0l0.2,0.7l0,0l0.3,0.7l0,0l0.4,0.6
				l0,0l0.5,0.5l0,0l0.6,0.4l0,0l0.7,0.3l0,0l0.7,0.2l0,0l0.7,0.1h0l0.7-0.1l0,0l0.7-0.2l0,0l0.7-0.3l0,0l0.6-0.4l0,0l0.5-0.5l0,0
				l0.4-0.6l0,0l0.3-0.7l0,0l0.2-0.7l0,0l0.1-0.7v0l-0.1-0.7l0,0l-0.2-0.7l0,0l-0.3-0.7l0,0l-0.4-0.6l0,0l-0.5-0.5l0,0l-0.6-0.4l0,0
				l-0.7-0.3l0,0l-0.7-0.2l0,0l-0.7-0.1h0l-0.7,0.1l0,0l-0.7,0.2l0,0l-0.7,0.3l0,0l-0.6,0.4l0,0L980.9,965.5L980.9,965.5z
				 M697.5,971L697.5,971l0.5,0.5l0,0l0.6,0.4v0l0.7,0.3l0,0l0.7,0.2l0,0l0.7,0.1h0l0.7-0.1v0l0.7-0.2v0l0.7-0.3v0l0.6-0.4v0
				l0.5-0.5v0l0.4-0.6v0l0.3-0.7l0,0l0.2-0.7v0l0.1-0.7v0l-0.1-0.7v0l-0.2-0.7v0l-0.3-0.7v0l-0.4-0.6v0l-0.5-0.5l0,0l-0.6-0.4v0
				l-0.7-0.3l0,0l-0.7-0.2l0,0l-0.7-0.1h0L700,964v0l-0.7,0.2v0l-0.7,0.3v0L698,965v0l-0.5,0.5v0l-0.4,0.6v0l-0.3,0.7l0,0l-0.2,0.7
				v0l-0.1,0.7v0l0.1,0.7v0l0.2,0.7v0l0.3,0.7v0L697.5,971z M590.2,980.2l-0.9,0.4l0,0l-1,0.3v0l-1,0.1l0,0l-1-0.1l0,0l-1-0.3l0,0
				l-0.9-0.4l0,0l-0.8-0.6v0L583,979v0l-0.6-0.8v0l-0.4-0.9l0,0l-0.3-1v0l-0.1-1v0l0.1-1l0,0l0.3-1v0l0.4-0.9v0l0.6-0.8v0l0.7-0.7
				l0,0l0.8-0.6l0,0l0.9-0.4l0,0l1-0.3v0l1-0.1l0,0l1,0.1l0,0l1,0.3l0,0l0.9,0.4l0,0l0.8,0.6v0l0.7,0.7v0l0.6,0.8v0l0.4,0.9l0,0
				l0.3,1v0l0.1,1v0l-0.1,1l0,0l-0.3,1v0l-0.4,0.9v0l-0.6,0.8v0l-0.7,0.7l0,0L590.2,980.2L590.2,980.2z M1140.1,1074.5l-8.5-11.3
				l0,0l-6.8,5.1l0,0l0,0l2.1,2.8l0,0l-6.8,5.1l0,0l-2.1-2.8l0,0l-6.8,5.1l0,0l-5.1-6.8l0,0l6.8-5.1l0,0l-2.1-2.8l0,0l6.8-5.1l0,0
				l2.1,2.8l0,0l6.8-5.1l-57.7-76.9l-0.1-0.2l0,0l-6.3,4.8l0,0l2.1,2.8l0,0l-6.8,5.1l0,0l-2.1-2.8l0,0l-6.8,5.1l0,0l-5.1-6.8l0,0
				l6.8-5.1l0,0l-2.1-2.8l0,0l6.8-5.1l0,0l2.1,2.8l0,0l6.3-4.8l-8.5-11.3l0,0h-99h-0.2l0,0l-0.2-2.5l0,0l-0.6-2.4l0,0l-1-2.2l0,0
				l-1.4-2l0,0l-1.7-1.7l0,0l-2-1.4l0,0l-2.2-1l0,0l-2.4-0.6l0,0l-2.5-0.2l0,0l-2.5,0.2l0,0l-2.4,0.6l0,0l-2.2,1l0,0l-2,1.4l0,0
				l-1.7,1.7l0,0l-1.4,2l0,0l-1,2.2l0,0l-0.6,2.4l0,0l-0.2,2.5h-42.4H885v14.1v0h-84.9H800v-14.1v0H573.6h-0.5v28.3v0.1h28.3h0.1v85
				 M601.5,1145.4v28.1v0.2H1139h1.1 M629.9,1038.7v56.6v0.1h-14.1h0v-56.6v-0.1H629.9L629.9,1038.7z M1145.1,1120.5l0.7-0.3l0,0
				l0.7-0.2l0,0l0.7-0.1l0,0l0.7,0.1l0,0l0.7,0.2l0,0l0.7,0.3l0,0l0.6,0.4l0,0l0.5,0.5l0,0l0.4,0.6l0,0l0.3,0.7l0,0l0.2,0.7l0,0
				l0.1,0.7v0l-0.1,0.7l0,0l-0.2,0.7l0,0l-0.3,0.7l0,0l-0.4,0.6l0,0l-0.5,0.5l0,0l-0.6,0.4l0,0l-0.7,0.3l0,0l-0.7,0.2l0,0l-0.7,0.1
				l0,0l-0.7-0.1l0,0l-0.7-0.2l0,0l-0.7-0.3l0,0l-0.6-0.4l0,0l-0.5-0.5l0,0l-0.4-0.6l0,0l-0.3-0.7l0,0l-0.2-0.7l0,0l-0.1-0.7v0
				l0.1-0.7l0,0l0.2-0.7l0,0l0.3-0.7l0,0l0.4-0.6l0,0l0.5-0.5l0,0L1145.1,1120.5L1145.1,1120.5z"/>
			<line class="st0" x1="601.5" y1="1074.5" x2="601.5" y2="1145.4"/>
		</g>
		<polyline class="st0" points="1140.1,1102.9 1154.3,1102.9 1154.3,1145.4 1140.1,1145.4 		"/>
		<line class="st0" x1="1140.1" y1="1173.7" x2="1140.1" y2="1145.4"/>
		<line class="st0" x1="1140.1" y1="1074.5" x2="1140.1" y2="1102.9"/>
	</g>
	<polygon class="st0" points="29.8,1110.7 29.8,1083.8 568.3,1083.8 568.3,1110.7 554.2,1110.7 554.2,1127.7 554.1,1127.7 
		531.5,1127.7 531.5,1127.7 531.5,1124.2 531.5,1124.2 523,1124.2 523,1124.2 523,1127.7 523,1127.7 503.1,1127.7 503.1,1127.7 
		503.1,1136.2 503.2,1136.2 523,1136.2 523,1136.2 523,1139.8 523,1139.8 531.5,1139.8 531.5,1139.8 531.5,1136.2 531.5,1136.2 
		554.2,1136.2 554.2,1153.2 568.3,1153.2 568.3,1181.6 29.8,1181.6 29.8,1153.2 43.9,1153.2 43.9,1136.2 66.6,1136.2 66.6,1136.2 
		66.6,1139.8 66.6,1139.8 75.1,1139.8 75.1,1139.8 75.1,1136.2 75.1,1136.2 94.9,1136.2 95,1136.2 95,1127.7 95,1127.7 75.2,1127.7 
		75.1,1127.7 75.1,1124.2 75.1,1124.2 66.6,1124.2 66.6,1124.2 66.6,1127.7 66.6,1127.7 44,1127.7 43.9,1127.7 43.9,1110.7 	"/>
	<path class="st0" d="M1694,1026.5v24h-22.6l0,0v-3.5l0,0h-8.5l0,0v3.5l0,0h-19.8l0,0v8.5l0,0h19.8l0,0v3.5l0,0h8.5l0,0v-3.5l0,0
		h22.6l0,0l0,0v24l0,0h14.1v0.1v42.4l0,0H1694l0,0v24h-22.6l0,0v-3.5l0,0h-8.5l0,0v3.5l0,0h-19.8l0,0v8.5l0,0h19.8l0,0v3.5l0,0h8.5
		l0,0v-3.5l0,0h22.6l0,0l0,0v21.2h-1h-509.2l0,0V1158h22.6l0,0v3.5l0,0h8.5l0,0v-3.5l0,0h19.8l0,0v-8.5l0,0h-19.8l0,0v-3.5l0,0h-8.5
		l0,0v3.5l0,0h-22.6l0,0l0,0v-24l0,0h-14.1v-0.1V1083l0,0h14.1l0,0v-24h22.6l0,0v3.5l0,0h8.5l0,0v-3.5l0,0h19.8l0,0v-8.5l0,0h-19.8
		l0,0v-3.5l0,0h-8.5l0,0v3.5l0,0h-22.6l0,0l0,0v-24h0.4h212.2l0,0v14.1h0.2h84.9l0,0v-14.1h0.4H1694L1694,1026.5z M1315.6,1033.5
		L1315.6,1033.5l-0.1,0.7l0,0l-0.2,0.7l0,0l-0.3,0.7l0,0l-0.4,0.6l0,0l-0.5,0.5l0,0l-0.6,0.4l0,0l-0.7,0.3l0,0l-0.7,0.2l0,0
		l-0.7,0.1l0,0l-0.7-0.1l0,0l-0.7-0.2l0,0l-0.7-0.3l0,0l-0.6-0.4l0,0l-0.5-0.5l0,0l-0.4-0.6l0,0l-0.3-0.7l0,0l-0.2-0.7l0,0l-0.1-0.7
		l0,0l0.1-0.7l0,0l0.2-0.7l0,0l0.3-0.7l0,0l0.4-0.6l0,0l0.5-0.5l0,0l0.6-0.4l0,0l0.7-0.3l0,0l0.7-0.2l0,0l0.7-0.1l0,0l0.7,0.1l0,0
		l0.7,0.2l0,0l0.7,0.3l0,0l0.6,0.4l0,0l0.5,0.5l0,0l0.4,0.6l0,0l0.3,0.7l0,0l0.2,0.7l0,0L1315.6,1033.5z M1567.9,1037.5l-0.7,0.2
		l0,0l-0.7,0.1l0,0l-0.7-0.1l0,0l-0.7-0.2l0,0l-0.7-0.3l0,0l-0.6-0.4l0,0l-0.5-0.5l0,0l-0.4-0.6l0,0l-0.3-0.7l0,0l-0.2-0.7l0,0
		l-0.1-0.7l0,0l0.1-0.7l0,0l0.2-0.7l0,0l0.3-0.7l0,0l0.4-0.6l0,0l0.5-0.5l0,0l0.6-0.4l0,0l0.7-0.3l0,0l0.7-0.2l0,0l0.7-0.1l0,0
		l0.7,0.1l0,0l0.7,0.2l0,0l0.7,0.3l0,0l0.6,0.4l0,0l0.5,0.5l0,0l0.4,0.6l0,0l0.3,0.7l0,0l0.2,0.7l0,0l0.1,0.7l0,0l-0.1,0.7l0,0
		l-0.2,0.7l0,0l-0.3,0.7l0,0l-0.4,0.6l0,0l-0.5,0.5l0,0l-0.6,0.4l0,0L1567.9,1037.5L1567.9,1037.5z"/>
	<path class="st0" d="M1694.2,857.7v21.2h-22.6l0,0v-3.5l0,0h-8.5l0,0v3.5l0,0h-19.8l0,0v8.5l0,0h19.8l0,0v3.5l0,0h8.4l0,0v-3.5l0,0
		h22.6l0,0l0,0v24l0,0h14.1v0.1v42.4l0,0h-14.1l0,0v24h-22.6l0,0v-3.5l0,0h-8.5l0,0v3.5l0,0h-19.8l0,0v8.5l0,0h19.8l0,0v3.5l0,0h8.5
		l0,0v-3.5l0,0h22.6l0,0l0,0v24h-0.4h-212.2l0,0v-13.9h-0.2h-84.9l0,0v14.1h-0.4h-212.2l0,0v-24h22.6l0,0v3.5l0,0h8.5l0,0v-3.5l0,0
		h19.8l0,0v-8.5l0,0h-19.8l0,0v-3.5l0,0h-8.5l0,0v3.5l0,0h-22.6l0,0l0,0v-24l0,0h-14.1V954v-42.5l0,0h14.1l0,0v-24h22.6l0,0v3.5l0,0
		h8.5l0,0v-3.5l0,0h19.8l0,0V879l0,0h-19.8l0,0v-3.5l0,0h-8.5l0,0v3.5l0,0h-22.6l0,0l0,0v-24l0,0l0,0l0,0v2.8h1L1694.2,857.7
		L1694.2,857.7L1694.2,857.7z M1563.9,1006.9L1563.9,1006.9l0.6,0.4l0,0l0.7,0.3l0,0l0.7,0.2l0,0l0.7,0.1l0,0l0.7-0.1l0,0l0.7-0.2
		l0,0l0.7-0.3l0,0l0.6-0.4l0,0l0.5-0.5l0,0l0.4-0.6l0,0l0.3-0.7l0,0l0.2-0.7l0,0l0.1-0.7l0,0l-0.1-0.7l0,0l-0.2-0.7l0,0l-0.3-0.7
		l0,0l-0.4-0.6l0,0l-0.5-0.5l0,0l-0.6-0.4l0,0l-0.7-0.3l0,0l-0.7-0.2l0,0l-0.7-0.1l0,0l-0.7,0.1l0,0l-0.7,0.2l0,0l-0.7,0.3l0,0
		l-0.6,0.4l0,0l-0.5,0.5l0,0l-0.4,0.6l0,0l-0.3,0.7l0,0l-0.2,0.7l0,0l-0.1,0.7l0,0l0.1,0.7l0,0l0.2,0.7l0,0l0.3,0.7l0,0l0.4,0.6l0,0
		L1563.9,1006.9z M1307.6,1002.2l0.3-0.7l0,0l0.4-0.6l0,0l0.5-0.5l0,0l0.6-0.4l0,0l0.7-0.3l0,0l0.7-0.2l0,0l0.7-0.1l0,0l0.7,0.1l0,0
		l0.7,0.2l0,0l0.7,0.3l0,0l0.6,0.4l0,0l0.5,0.5l0,0l0.4,0.6l0,0l0.3,0.7l0,0l0.2,0.7l0,0l0.1,0.7l0,0l-0.1,0.7l0,0l-0.2,0.7l0,0
		l-0.3,0.7l0,0l-0.4,0.6l0,0l-0.5,0.5l0,0l-0.6,0.4l0,0l-0.7,0.3l0,0l-0.7,0.2l0,0l-0.7,0.1l0,0l-0.7-0.1l0,0l-0.7-0.2l0,0l-0.7-0.3
		l0,0l-0.6-0.4l0,0l-0.5-0.5l0,0l-0.4-0.6l0,0l-0.3-0.7l0,0l-0.2-0.7l0,0l-0.1-0.7l0,0l0.1-0.7l0,0L1307.6,1002.2L1307.6,1002.2z"/>
	<path class="st0" d="M1685.7,809.3l-0.2,0.7l0,0l-0.1,0.7l0,0l0.1,0.7l0,0l0.2,0.7l0,0l0.3,0.7l0,0l0.4,0.6l0,0l0.5,0.5l0,0
		l0.6,0.4l0,0l0.7,0.3l0,0l0.7,0.2l0,0l0.7,0.1l0,0l0.7-0.1l0,0l0.7-0.2l0,0l0.7-0.3l0,0l0.6-0.4l0,0l0.5-0.5l0,0l0.4-0.6l0,0
		l0.3-0.7l0,0l0.2-0.7l0,0l0.1-0.7l0,0l-0.1-0.7l0,0l-0.2-0.7l0,0l-0.3-0.7l0,0l-0.4-0.6l0,0l-0.5-0.5l0,0l-0.6-0.4l0,0l-0.7-0.3
		l0,0l-0.7-0.2l0,0l-0.7-0.1l0,0l-0.7,0.1l0,0l-0.7,0.2l0,0l-0.7,0.3l0,0l-0.6,0.4l0,0l-0.5,0.5l0,0l-0.4,0.6l0,0L1685.7,809.3
		L1685.7,809.3z M1267.8,714.3l-0.5,0.5l0,0l-0.6,0.4l0,0l-0.7,0.3l0,0l-0.7,0.2l0,0l-0.7,0.1l0,0l-0.7-0.1l0,0l-0.7-0.2l0,0
		l-0.7-0.3l0,0l-0.6-0.4l0,0l-0.5-0.5l0,0l-0.4-0.6l0,0l-0.3-0.7l0,0l-0.2-0.7l0,0l-0.1-0.7l0,0l0.1-0.7l0,0l0.2-0.7l0,0l0.3-0.7
		l0,0l0.4-0.6l0,0l0.5-0.5l0,0l0.6-0.4l0,0l0.7-0.3l0,0l0.7-0.2l0,0l0.7-0.1l0,0l0.7,0.1l0,0l0.7,0.2l0,0l0.7,0.3l0,0l0.6,0.4l0,0
		l0.5,0.5l0,0l0.4,0.6l0,0l0.3,0.7l0,0l0.2,0.7l0,0l0.1,0.7l0,0l-0.1,0.7l0,0l-0.2,0.7l0,0l-0.3,0.7l0,0L1267.8,714.3L1267.8,714.3z
		 M1331.6,693l-0.5,0.5l0,0l-0.6,0.4l0,0l-0.7,0.3l0,0l-0.7,0.2l0,0l-0.7,0.1l0,0l-0.7-0.1l0,0l-0.7-0.2l0,0l-0.7-0.3l0,0l-0.6-0.4
		l0,0l-0.5-0.5l0,0l-0.4-0.6l0,0l-0.3-0.7l0,0l-0.2-0.7l0,0l-0.1-0.7l0,0l0.1-0.7l0,0l0.2-0.7l0,0l0.3-0.7l0,0l0.4-0.6l0,0l0.5-0.5
		l0,0l0.6-0.4l0,0l0.7-0.3l0,0l0.7-0.2l0,0l0.7-0.1l0,0l0.7,0.1l0,0l0.7,0.2l0,0l0.7,0.3l0,0l0.6,0.4l0,0l0.5,0.5l0,0l0.4,0.6l0,0
		l0.3,0.7l0,0l0.2,0.7l0,0l0.1,0.7l0,0l-0.1,0.7l0,0l-0.2,0.7l0,0l-0.3,0.7l0,0L1331.6,693L1331.6,693z M1229.8,792.4L1229.8,792.4
		l-0.7-0.1l0,0l-0.7,0.1l0,0l-0.7,0.2l0,0l-0.7,0.3l0,0l-0.6,0.4l0,0l-0.5,0.5l0,0l-0.4,0.6l0,0l-0.3,0.7l0,0l-0.2,0.7l0,0l-0.1,0.7
		l0,0l0.1,0.7l0,0l0.2,0.7l0,0l0.3,0.7l0,0l0.4,0.6l0,0l0.5,0.5l0,0l0.6,0.4l0,0l0.7,0.3l0,0l0.7,0.2l0,0l0.7,0.1l0,0l0.7-0.1l0,0
		l0.7-0.2l0,0l0.7-0.3l0,0l0.6-0.4l0,0l0.5-0.5l0,0l0.4-0.6l0,0l0.3-0.7l0,0l0.2-0.7l0,0l0.1-0.7l0,0l-0.1-0.7l0,0l-0.2-0.7l0,0
		l-0.3-0.7l0,0l-0.4-0.6l0,0l-0.5-0.5l0,0l-0.6-0.4l0,0l-0.7-0.3l0,0L1229.8,792.4z M1257.5,739.9L1257.5,739.9v42.5l0,0h14.1v-0.1
		v-42.4l0,0H1257.5z M1693.7,710.1L1693.7,710.1l0.2,0.7l0,0l0.1,0.7l0,0l-0.1,0.7l0,0l-0.2,0.7l0,0l-0.3,0.7l0,0l-0.4,0.6l0,0
		l-0.5,0.5l0,0l-0.6,0.4l0,0l-0.7,0.3l0,0l-0.7,0.2l0,0l-0.7,0.1l0,0l-0.7-0.1l0,0l-0.7-0.2l0,0l-0.7-0.3l0,0l-0.6-0.4l0,0l-0.5-0.5
		l0,0l-0.4-0.6l0,0l-0.3-0.7l0,0l-0.2-0.7l0,0l-0.1-0.7l0,0l0.1-0.7l0,0l0.2-0.7l0,0l0.3-0.7l0,0l0.4-0.6l0,0l0.5-0.5l0,0l0.6-0.4
		l0,0l0.7-0.3l0,0l0.7-0.2l0,0l0.7-0.1l0,0l0.7,0.1l0,0l0.7,0.2l0,0l0.7,0.3l0,0l0.6,0.4l0,0l0.5,0.5l0,0l0.4,0.6l0,0L1693.7,710.1z
		 M1214.9,810.7v-28.3l0.1-0.1l28.3-28.2V754v-70.7h0.4h183.8l0,0v14.1h0.2h84.9l0,0v-14.1h0.4h183.8v0.1V740l0,0h-14.1v0.1v42.4
		l0,0h14.1v0.1v56.5h-0.2H1599l-0.2-2.7l0,0l-0.7-2.6l0,0l-1.1-2.5l0,0l-1.6-2.2l0,0l-1.9-1.9l0,0l-2.2-1.6l0,0l-2.5-1.1l0,0
		l-2.6-0.7l0,0l-2.7-0.2l0,0l-2.7,0.2l0,0l-2.6,0.7l0,0l-2.5,1.1l0,0l-2.2,1.6l0,0l-1.9,1.9l0,0l-1.6,2.2l0,0l-1.1,2.5l0,0l-0.7,2.6
		l0,0l-0.2,2.7l0,0h-0.6h-324.1l0,0V825l0,0l-14.1-14.1l0,0L1214.9,810.7L1214.9,810.7z M1598.4,686.1L1598.4,686.1l-0.7-0.1l0,0
		l-0.7,0.1l0,0l-0.7,0.2l0,0l-0.7,0.3l0,0l-0.6,0.4l0,0l-0.5,0.5l0,0l-0.4,0.6l0,0l-0.3,0.7l0,0l-0.2,0.7l0,0l-0.1,0.7l0,0l0.1,0.7
		l0,0l0.2,0.7l0,0l0.3,0.7l0,0l0.4,0.6l0,0l0.5,0.5l0,0l0.6,0.4l0,0l0.7,0.3l0,0l0.7,0.2l0,0l0.7,0.1l0,0l0.7-0.1l0,0l0.7-0.2l0,0
		l0.7-0.3l0,0l0.6-0.4l0,0l0.5-0.5l0,0l0.4-0.6l0,0l0.3-0.7l0,0l0.2-0.7l0,0l0.1-0.7l0,0l-0.1-0.7l0,0l-0.2-0.7l0,0l-0.3-0.7l0,0
		l-0.4-0.6l0,0l-0.5-0.5l0,0l-0.6-0.4l0,0l-0.7-0.3l0,0L1598.4,686.1z M1265.3,806.6L1265.3,806.6l-0.7-0.1l0,0l-0.7,0.1l0,0
		l-0.7,0.2l0,0l-0.7,0.3l0,0l-0.6,0.4l0,0l-0.5,0.5l0,0l-0.4,0.6l0,0l-0.3,0.7l0,0l-0.2,0.7l0,0l-0.1,0.7l0,0l0.1,0.7l0,0l0.2,0.7
		l0,0l0.3,0.7l0,0l0.4,0.6l0,0l0.5,0.5l0,0l0.6,0.4l0,0l0.7,0.3l0,0l0.7,0.2l0,0l0.7,0.1l0,0l0.7-0.1l0,0l0.7-0.2l0,0l0.7-0.3l0,0
		l0.6-0.4l0,0l0.5-0.5l0,0l0.4-0.6l0,0l0.3-0.7l0,0l0.2-0.7l0,0l0.1-0.7l0,0l-0.1-0.7l0,0l-0.2-0.7l0,0l-0.3-0.7l0,0l-0.4-0.6l0,0
		l-0.5-0.5l0,0l-0.6-0.4l0,0l-0.7-0.3l0,0L1265.3,806.6z M1404.8,791l-0.7,0.2l0,0l-0.7,0.3l0,0l-0.6,0.4l0,0l-0.5,0.5l0,0l-0.4,0.6
		l0,0l-0.3,0.7l0,0l-0.2,0.7l0,0l-0.1,0.7l0,0l0.1,0.7l0,0l0.2,0.7l0,0l0.3,0.7l0,0l0.4,0.6l0,0l0.5,0.5l0,0l0.6,0.4l0,0l0.7,0.3
		l0,0l0.7,0.2l0,0l0.7,0.1l0,0l0.7-0.1l0,0l0.7-0.2l0,0l0.7-0.3l0,0l0.6-0.4l0,0l0.5-0.5l0,0l0.4-0.6l0,0l0.3-0.7l0,0l0.2-0.7l0,0
		l0.1-0.7l0,0l-0.1-0.7l0,0l-0.2-0.7l0,0l-0.3-0.7l0,0l-0.4-0.6l0,0l-0.5-0.5l0,0l-0.6-0.4l0,0l-0.7-0.3l0,0l-0.7-0.2l0,0l-0.7-0.1
		l0,0L1404.8,791L1404.8,791z"/>
	<path class="st0" d="M1507,454.4v0.2h-14.1l0,0v183.9v0.4h70.7h0.1l28.3,28.3l0.1,0.1h28.3h0.1v-14.1l0,0l14.1-14.1l0,0h14.1l0,0
		V314.9v-0.6l0,0l-2.7-0.2l0,0l-2.6-0.7l0,0l-2.5-1.1l0,0l-2.2-1.6l0,0l-1.9-1.9l0,0l-1.6-2.2l0,0l-1.1-2.5l0,0l-0.7-2.6l0,0
		l-0.2-2.7l0,0l0.2-2.7l0,0l0.7-2.6l0,0l1.1-2.5l0,0l1.6-2.2l0,0l1.9-1.9l0,0l2.2-1.6l0,0l2.5-1.1l0,0l2.6-0.7l0,0l2.7-0.2v-97.6
		v-0.2h-56.6h-0.1v14.1l0,0h-42.4h-0.1v-14.1l0,0h-56.6h-0.1v183.6v0.4h14.1l0,0L1507,454.4L1507,454.4z M1603.5,649.7L1603.5,649.7
		l0.6-0.4l0,0l0.7-0.3l0,0l0.7-0.2l0,0l0.7-0.1l0,0l0.7,0.1l0,0l0.7,0.2l0,0l0.7,0.3l0,0l0.6,0.4l0,0l0.5,0.5l0,0l0.4,0.6l0,0
		l0.3,0.7l0,0l0.2,0.7l0,0l0.1,0.7l0,0l-0.1,0.7l0,0l-0.2,0.7l0,0l-0.3,0.7l0,0l-0.4,0.6l0,0l-0.5,0.5l0,0l-0.6,0.4l0,0l-0.7,0.3
		l0,0l-0.7,0.2l0,0l-0.7,0.1l0,0l-0.7-0.1l0,0l-0.7-0.2l0,0l-0.7-0.3l0,0l-0.6-0.4l0,0l-0.5-0.5l0,0l-0.4-0.6l0,0l-0.3-0.7l0,0
		l-0.2-0.7l0,0l-0.1-0.7l0,0l0.1-0.7l0,0l0.2-0.7l0,0l0.3-0.7l0,0l0.4-0.6l0,0L1603.5,649.7z M1517.5,190.2L1517.5,190.2l-0.3,0.7
		l0,0l-0.2,0.7l0,0l-0.1,0.7l0,0l0.1,0.7l0,0l0.2,0.7l0,0l0.3,0.7l0,0l0.4,0.6l0,0l0.5,0.5l0,0l0.6,0.4l0,0l0.7,0.3l0,0l0.7,0.2l0,0
		l0.7,0.1l0,0l0.7-0.1l0,0l0.7-0.2l0,0l0.7-0.3l0,0l0.6-0.4l0,0l0.5-0.5l0,0l0.4-0.6l0,0l0.3-0.7l0,0l0.2-0.7l0,0l0.1-0.7l0,0
		l-0.1-0.7l0,0l-0.2-0.7l0,0l-0.3-0.7l0,0l-0.4-0.6l0,0l-0.5-0.5l0,0l-0.6-0.4l0,0l-0.7-0.3l0,0l-0.7-0.2l0,0l-0.7-0.1l0,0l-0.7,0.1
		l0,0l-0.7,0.2l0,0l-0.7,0.3l0,0l-0.6,0.4l0,0l-0.5,0.5l0,0L1517.5,190.2z M1622.5,196L1622.5,196l0.6-0.4l0,0l0.5-0.5l0,0l0.4-0.6
		l0,0l0.3-0.7l0,0l0.2-0.7l0,0l0.1-0.7l0,0l-0.1-0.7l0,0l-0.2-0.7l0,0l-0.3-0.7l0,0l-0.4-0.6l0,0l-0.5-0.5l0,0l-0.6-0.4l0,0
		l-0.7-0.3l0,0l-0.7-0.2l0,0l-0.7-0.1l0,0l-0.7,0.1l0,0l-0.7,0.2l0,0l-0.7,0.3l0,0l-0.6,0.4l0,0l-0.5,0.5l0,0l-0.4,0.6l0,0l-0.3,0.7
		l0,0l-0.2,0.7l0,0l-0.1,0.7l0,0l0.1,0.7l0,0l0.2,0.7l0,0l0.3,0.7l0,0l0.4,0.6l0,0l0.5,0.5l0,0l0.6,0.4l0,0l0.7,0.3l0,0l0.7,0.2l0,0
		l0.7,0.1l0,0l0.7-0.1l0,0l0.7-0.2l0,0L1622.5,196z M1521.2,613.3L1521.2,613.3l0.7,0.1l0,0l0.7,0.2l0,0l0.7,0.3l0,0l0.6,0.4l0,0
		l0.5,0.5l0,0l0.4,0.6l0,0l0.3,0.7l0,0l0.2,0.7l0,0l0.1,0.7l0,0l-0.1,0.7l0,0l-0.2,0.7l0,0l-0.3,0.7l0,0l-0.4,0.6l0,0l-0.5,0.5l0,0
		l-0.6,0.4l0,0l-0.7,0.3l0,0l-0.7,0.2l0,0l-0.7,0.1l0,0l-0.7-0.1l0,0l-0.7-0.2l0,0l-0.7-0.3l0,0l-0.6-0.4l0,0l-0.5-0.5l0,0l-0.4-0.6
		l0,0l-0.3-0.7l0,0l-0.2-0.7l0,0l-0.1-0.7l0,0l0.1-0.7l0,0l0.2-0.7l0,0l0.3-0.7l0,0l0.4-0.6l0,0l0.5-0.5l0,0l0.6-0.4l0,0l0.7-0.3
		l0,0l0.7-0.2l0,0L1521.2,613.3z M1504.1,553.7L1504.1,553.7l-0.1,0.7l0,0l-0.2,0.7l0,0l-0.3,0.7l0,0l-0.4,0.6l0,0l-0.5,0.5l0,0
		l-0.6,0.4l0,0l-0.7,0.3l0,0l-0.7,0.2l0,0l-0.7,0.1l0,0l-0.7-0.1l0,0l-0.7-0.2l0,0l-0.7-0.3l0,0l-0.6-0.4l0,0l-0.5-0.5l0,0l-0.4-0.6
		l0,0l-0.3-0.7l0,0l-0.2-0.7l0,0l-0.1-0.7l0,0l0.1-0.7l0,0l0.2-0.7l0,0l0.3-0.7l0,0l0.4-0.6l0,0l0.5-0.5l0,0l0.6-0.4l0,0l0.7-0.3
		l0,0l0.7-0.2l0,0l0.7-0.1l0,0l0.7,0.1l0,0l0.7,0.2l0,0l0.7,0.3l0,0l0.6,0.4l0,0l0.5,0.5l0,0l0.4,0.6l0,0l0.3,0.7l0,0l0.2,0.7l0,0
		L1504.1,553.7z M1495.7,283.7L1495.7,283.7l-0.1,0.7l0,0l0.1,0.7l0,0l0.2,0.7l0,0l0.3,0.7l0,0l0.4,0.6l0,0l0.5,0.5l0,0l0.6,0.4l0,0
		l0.7,0.3l0,0l0.7,0.2l0,0l0.7,0.1l0,0l0.7-0.1l0,0l0.7-0.2l0,0l0.7-0.3l0,0l0.6-0.4l0,0l0.5-0.5l0,0l0.4-0.6l0,0l0.3-0.7l0,0
		l0.2-0.7l0,0l0.1-0.7l0,0l-0.1-0.7l0,0l-0.2-0.7l0,0l-0.3-0.7l0,0l-0.4-0.6l0,0l-0.5-0.5l0,0l-0.6-0.4l0,0l-0.7-0.3l0,0l-0.7-0.2
		l0,0l-0.7-0.1l0,0l-0.7,0.1l0,0l-0.7,0.2l0,0l-0.7,0.3l0,0l-0.6,0.4l0,0l-0.5,0.5l0,0l-0.4,0.6l0,0l-0.3,0.7l0,0L1495.7,283.7z
		 M1616.2,616.8L1616.2,616.8l-0.1,0.7l0,0l0.1,0.7l0,0l0.2,0.7l0,0l0.3,0.7l0,0l0.4,0.6l0,0l0.5,0.5l0,0l0.6,0.4l0,0l0.7,0.3l0,0
		l0.7,0.2l0,0l0.7,0.1l0,0l0.7-0.1l0,0l0.7-0.2l0,0l0.7-0.3l0,0l0.6-0.4l0,0l0.5-0.5l0,0l0.4-0.6l0,0l0.3-0.7l0,0l0.2-0.7l0,0
		l0.1-0.7l0,0l-0.1-0.7l0,0l-0.2-0.7l0,0l-0.3-0.7l0,0l-0.4-0.6l0,0l-0.5-0.5l0,0l-0.6-0.4l0,0l-0.7-0.3l0,0l-0.7-0.2l0,0l-0.7-0.1
		l0,0l-0.7,0.1l0,0l-0.7,0.2l0,0l-0.7,0.3l0,0l-0.6,0.4l0,0l-0.5,0.5l0,0l-0.4,0.6l0,0l-0.3,0.7l0,0L1616.2,616.8z M1592,624.6
		L1592,624.6h-42.4h-0.1v-14.1l0,0h42.4h0.1V624.6z"/>
</g>
<g id="bottom">
	<g>
		<polyline class="st0" points="619.7,35.6 690.6,35.6 690.6,117.4 690.6,117.5 690.6,179.7 668,179.7 667.9,179.7 667.9,176.2 
			667.9,176.2 659.4,176.2 659.4,176.2 659.4,179.7 659.4,179.7 639.6,179.7 639.6,179.7 639.6,188.2 639.6,188.2 659.4,188.2 
			659.4,188.2 659.4,191.8 659.4,191.8 667.9,191.8 667.9,191.8 667.9,188.2 667.9,188.2 690.6,188.2 690.6,188.2 690.6,188.5 
			690.6,330 690.6,330 704.8,330 704.8,330.1 704.8,415 704.8,415 690.6,415 690.6,415 690.6,415.3 690.6,556.7 668,556.7 
			667.9,556.7 667.9,553.2 667.9,553.2 659.4,553.2 659.4,553.2 659.4,556.7 659.4,556.7 639.6,556.7 639.6,556.7 639.6,565.2 
			639.6,565.2 659.4,565.2 659.4,565.2 659.4,568.8 659.4,568.8 667.9,568.8 667.9,568.8 667.9,565.2 667.9,565.2 668,565.2 
			690.6,565.2 690.6,565.4 690.6,627.6 690.6,687.6 38.6,687.6 38.6,627.6 38.6,627.6 38.6,627.5 38.6,565.2 61.3,565.2 61.3,565.2 
			61.3,568.8 61.3,568.8 69.8,568.8 69.8,568.8 69.8,565.2 69.8,565.2 89.6,565.2 89.7,565.2 89.7,556.7 89.7,556.7 69.9,556.7 
			69.8,556.7 69.8,553.2 69.8,553.2 61.3,553.2 61.3,553.2 61.3,556.7 61.3,556.7 38.7,556.7 38.6,556.7 38.6,556.4 38.6,415 
			38.6,415 24.5,415 24.5,414.8 24.5,330 24.5,330 38.6,330 38.6,329.7 38.6,188.2 61.3,188.2 61.3,188.2 61.3,191.8 61.3,191.8 
			69.8,191.8 69.8,191.8 69.8,188.2 69.8,188.2 89.6,188.2 89.7,188.2 89.7,179.7 89.7,179.7 69.9,179.7 69.8,179.7 69.8,176.2 
			69.8,176.2 61.3,176.2 61.3,176.2 61.3,179.7 61.3,179.7 38.7,179.7 38.6,179.7 38.6,179.6 38.6,117.4 38.6,117.4 38.6,35.6 
			109.5,35.6 109.6,35.6 228.4,35.6 228.4,58.2 228.4,58.3 224.9,58.3 224.9,58.3 224.9,66.8 224.9,66.8 228.4,66.8 228.4,66.8 
			228.4,86.6 228.4,86.6 236.9,86.6 236.9,86.6 236.9,66.8 236.9,66.8 240.5,66.8 240.5,66.8 240.5,58.3 240.5,58.3 237,58.3 
			236.9,58.3 236.9,35.7 236.9,35.6 237.1,35.6 322,35.6 322,35.6 322,21.4 322.2,21.4 407,21.4 407,21.5 407,35.6 407.2,35.6 
			492.1,35.6 492.1,58.2 492.1,58.3 488.5,58.3 488.5,58.3 488.5,66.8 488.5,66.8 492.1,66.8 492.1,66.8 492.1,86.6 492.1,86.6 
			500.6,86.6 500.6,86.6 500.6,66.8 500.6,66.8 504.1,66.8 504.1,66.8 504.1,58.3 504.1,58.3 500.6,58.3 500.6,58.3 500.6,35.7 
			500.6,35.6 500.8,35.6 619.6,35.6 		"/>
	</g>
</g>
<g id="top">
	<polyline class="st0" points="731.6,112.1 731.6,41.3 802.5,41.3 	"/>
	<path class="st0" d="M731.6,112.1"/>
	<polyline class="st0" points="1383.6,537.3 1383.6,608.2 731.6,608.2 731.6,537.3 	"/>
	<polyline class="st0" points="1312.7,41.3 1383.6,41.3 1383.6,112.1 	"/>
	<polyline class="st0" points="1312.7,41.3 1193.9,41.3 1193.6,41.3 1193.6,41.3 1193.6,64 1193.7,64 1197.2,64 1197.2,64 
		1197.2,72.5 1197.2,72.5 1193.6,72.5 1193.6,72.5 1193.6,92.3 1193.6,92.3 1185.1,92.3 1185.1,92.3 1185.1,72.5 1185.1,72.5 
		1181.6,72.5 1181.6,72.4 1181.6,64 1181.6,64 1185.1,64 1185.1,63.9 1185.1,41.3 1100.3,41.3 1100.1,41.3 1100.1,27.1 1100.1,27.1 
		1015.2,27.1 1015.1,27.1 1015.1,41.2 1015.1,41.3 930.2,41.3 930,41.3 930,41.3 930,64 930,64 933.6,64 933.6,64 933.6,72.5 
		933.6,72.5 930,72.5 930,72.5 930,92.3 930,92.3 921.5,92.3 921.5,92.3 921.5,72.5 921.5,72.5 918,72.5 918,72.4 918,64 918,64 
		921.5,64 921.5,63.9 921.5,41.3 802.7,41.3 802.5,41.3 	"/>
	<polyline class="st0" points="731.6,112.1 731.6,178.6 731.6,178.8 731.6,178.8 754.3,178.8 754.3,178.7 754.3,175.2 754.3,175.2 
		762.8,175.2 762.8,175.2 762.8,178.8 762.8,178.8 782.6,178.8 782.6,178.8 782.6,187.3 782.6,187.3 762.8,187.3 762.8,187.3 
		762.8,190.8 762.8,190.8 754.3,190.8 754.3,190.8 754.3,187.3 754.2,187.3 731.6,187.3 731.6,282 731.6,282.2 717.5,282.2 
		717.4,282.2 717.4,367.1 717.4,367.3 731.6,367.3 731.6,367.3 731.6,462 731.6,462.2 731.6,462.2 754.3,462.2 754.3,462.2 
		754.3,458.7 754.3,458.7 762.8,458.7 762.8,458.7 762.8,462.2 762.8,462.2 782.6,462.2 782.6,462.2 782.6,470.7 782.6,470.7 
		762.8,470.7 762.8,470.7 762.8,474.3 762.8,474.3 754.3,474.3 754.3,474.3 754.3,470.7 754.2,470.7 731.6,470.7 731.6,537.2 
		731.6,537.3 	"/>
	<polygon class="st0" points="1053.6,303.3 1053.6,303.3 1053.9,304 1053.9,304 1054.3,304.6 1054.3,304.6 1054.8,305.1 
		1054.9,305.1 1055.5,305.6 1055.5,305.6 1056.1,305.9 1056.1,305.9 1056.8,306.1 1056.8,306.1 1057.6,306.1 1057.6,306.1 
		1058.3,306.1 1058.3,306.1 1059,305.9 1059,305.9 1059.7,305.6 1059.7,305.6 1060.3,305.1 1060.3,305.1 1060.8,304.6 1060.8,304.6 
		1061.3,304 1061.3,304 1061.6,303.3 1061.6,303.3 1061.8,302.6 1061.8,302.6 1061.8,301.9 1061.8,301.9 1061.8,301.2 1061.8,301.2 
		1061.6,300.4 1061.6,300.4 1061.3,299.8 1061.3,299.8 1060.8,299.2 1060.8,299.2 1060.3,298.6 1060.3,298.6 1059.7,298.2 
		1059.7,298.2 1059,297.9 1059,297.9 1058.3,297.7 1058.3,297.7 1057.6,297.6 1057.6,297.6 1056.8,297.7 1056.8,297.7 1056.1,297.9 
		1056.1,297.9 1055.5,298.2 1055.5,298.2 1054.9,298.6 1054.9,298.6 1054.3,299.2 1054.3,299.2 1053.9,299.8 1053.9,299.8 
		1053.6,300.4 1053.6,300.4 1053.4,301.1 1053.4,301.2 1053.3,301.9 1053.3,301.9 1053.4,302.6 1053.4,302.6 	"/>
	<polygon class="st0" points="1070.9,248.9 1070.9,248.9 1071.5,251.2 1071.5,251.2 1071.8,253.7 1071.8,253.7 1071.5,256.2 
		1071.5,256.2 1070.9,258.5 1070.9,258.6 1069.9,260.8 1069.9,260.8 1068.4,262.8 1068.4,262.8 1066.7,264.6 1066.7,264.6 
		1064.7,266 1064.7,266 1062.4,267 1062.4,267 1060,267.7 1060,267.7 1057.6,267.9 1057.6,267.9 1055.1,267.7 1055.1,267.7 
		1052.7,267 1052.7,267 1050.5,266 1050.5,266 1048.5,264.6 1048.5,264.6 1046.7,262.8 1046.7,262.8 1045.3,260.8 1045.3,260.8 
		1044.3,258.5 1044.3,258.5 1043.6,256.2 1043.6,256.2 1043.4,253.7 1043.4,253.7 1043.6,251.2 1043.6,251.2 1044.3,248.9 
		1044.3,248.8 1045.3,246.6 1045.3,246.6 1046.7,244.6 1046.7,244.6 1048.5,242.8 1048.5,242.8 1050.5,241.4 1050.5,241.4 
		1052.7,240.4 1052.7,240.4 1055.1,239.7 1055.1,239.7 1057.6,239.5 1057.6,239.5 1060,239.7 1060,239.7 1062.4,240.4 1062.4,240.4 
		1064.7,241.4 1064.7,241.4 1066.7,242.8 1066.7,242.8 1068.4,244.6 1068.4,244.6 1069.9,246.6 1069.9,246.6 	"/>
	<polygon class="st0" points="1060.3,344 1060.3,344 1060.8,344.5 1060.8,344.5 1061.3,345.1 1061.3,345.1 1061.6,345.8 
		1061.6,345.8 1061.8,346.5 1061.8,346.5 1061.8,347.2 1061.8,347.2 1061.8,348 1061.8,348 1061.6,348.7 1061.6,348.7 1061.3,349.4 
		1061.3,349.4 1060.8,350 1060.8,350 1060.3,350.5 1060.3,350.5 1059.7,350.9 1059.7,350.9 1059,351.2 1059,351.2 1058.3,351.4 
		1058.3,351.4 1057.6,351.5 1057.6,351.5 1056.8,351.4 1056.8,351.4 1056.1,351.2 1056.1,351.2 1055.5,350.9 1055.5,350.9 
		1054.9,350.5 1054.8,350.5 1054.3,350 1054.3,350 1053.9,349.4 1053.9,349.4 1053.6,348.7 1053.6,348.7 1053.4,348 1053.4,348 
		1053.3,347.2 1053.3,347.2 1053.4,346.5 1053.4,346.5 1053.6,345.8 1053.6,345.8 1053.9,345.1 1053.9,345.1 1054.3,344.5 
		1054.3,344.5 1054.9,344 1054.9,344 1055.5,343.6 1055.5,343.6 1056.1,343.2 1056.1,343.2 1056.8,343.1 1056.8,343.1 1057.6,343 
		1057.6,343 1058.3,343.1 1058.3,343.1 1059,343.2 1059,343.2 1059.7,343.6 1059.7,343.6 	"/>
	<polygon class="st0" points="1088.7,325.3 1088.5,326 1088.5,326 1088.2,326.7 1088.2,326.7 1087.8,327.3 1087.8,327.3 
		1087.2,327.8 1087.2,327.8 1086.6,328.2 1086.6,328.2 1086,328.6 1086,328.6 1085.3,328.8 1085.2,328.8 1084.5,328.8 1084.5,328.8 
		1083.8,328.8 1083.8,328.8 1083.1,328.6 1083.1,328.6 1082.4,328.2 1082.4,328.2 1081.8,327.8 1081.8,327.8 1081.3,327.3 
		1081.3,327.3 1080.8,326.7 1080.8,326.7 1080.5,326 1080.5,326 1080.3,325.3 1080.3,325.3 1080.3,324.6 1080.3,324.6 1080.3,323.8 
		1080.3,323.8 1080.5,323.1 1080.5,323.1 1080.8,322.4 1080.8,322.4 1081.3,321.8 1081.3,321.8 1081.8,321.3 1081.8,321.3 
		1082.4,320.9 1082.4,320.9 1083.1,320.6 1083.1,320.6 1083.8,320.4 1083.8,320.4 1084.5,320.3 1084.5,320.3 1085.3,320.4 
		1085.3,320.4 1086,320.6 1086,320.6 1086.6,320.9 1086.6,320.9 1087.2,321.3 1087.2,321.3 1087.8,321.8 1087.8,321.8 1088.2,322.4 
		1088.2,322.4 1088.5,323.1 1088.5,323.1 1088.7,323.8 1088.7,323.8 1088.8,324.6 1088.8,324.6 1088.7,325.3 	"/>
	<polygon class="st0" points="1055.5,312.7 1053.5,313.2 1053.5,313.2 1051.6,314.1 1051.6,314.1 1049.8,315.3 1049.8,315.3 
		1048.4,316.8 1048.4,316.8 1047.2,318.5 1047.2,318.5 1046.3,320.4 1046.3,320.4 1045.7,322.5 1045.7,322.5 1045.5,324.6 
		1045.5,324.6 1045.7,326.7 1045.7,326.7 1046.3,328.7 1046.3,328.7 1047.1,330.6 1047.2,330.6 1048.4,332.3 1048.4,332.3 
		1049.8,333.8 1049.8,333.8 1051.6,335 1051.6,335 1053.5,335.9 1053.5,335.9 1055.5,336.4 1055.5,336.4 1057.6,336.6 1057.6,336.6 
		1059.7,336.4 1059.7,336.4 1061.7,335.9 1061.7,335.9 1063.6,335 1063.6,335 1065.3,333.8 1065.3,333.8 1066.8,332.3 1066.8,332.3 
		1068,330.6 1068,330.6 1068.9,328.7 1068.9,328.7 1069.4,326.7 1069.4,326.7 1069.6,324.6 1069.6,324.6 1069.4,322.5 1069.4,322.5 
		1068.9,320.5 1068.9,320.4 1068,318.5 1068,318.5 1066.8,316.8 1066.8,316.8 1065.3,315.3 1065.3,315.3 1063.6,314.1 1063.6,314.1 
		1061.7,313.2 1061.7,313.2 1059.7,312.7 1059.7,312.7 1057.6,312.5 1057.6,312.5 1055.5,312.7 	"/>
	<polygon class="st0" points="1029.9,320.4 1029.2,320.6 1029.2,320.6 1028.5,320.9 1028.5,320.9 1027.9,321.3 1027.9,321.3 
		1027.4,321.8 1027.4,321.8 1027,322.4 1027,322.4 1026.7,323.1 1026.7,323.1 1026.5,323.8 1026.5,323.8 1026.4,324.6 1026.4,324.6 
		1026.5,325.3 1026.5,325.3 1026.7,326 1026.7,326 1027,326.7 1027,326.7 1027.4,327.3 1027.4,327.3 1027.9,327.8 1027.9,327.8 
		1028.5,328.2 1028.5,328.2 1029.2,328.6 1029.2,328.6 1029.9,328.8 1029.9,328.8 1030.7,328.8 1030.7,328.8 1031.4,328.8 
		1031.4,328.8 1032.1,328.6 1032.1,328.6 1032.8,328.2 1032.8,328.2 1033.4,327.8 1033.4,327.8 1033.9,327.3 1033.9,327.3 
		1034.3,326.7 1034.3,326.7 1034.6,326 1034.6,326 1034.8,325.3 1034.8,325.3 1034.9,324.6 1034.9,324.6 1034.8,323.8 1034.8,323.8 
		1034.7,323.1 1034.6,323.1 1034.3,322.4 1034.3,322.4 1033.9,321.8 1033.9,321.8 1033.4,321.3 1033.4,321.3 1032.8,320.9 
		1032.8,320.9 1032.1,320.6 1032.1,320.6 1031.4,320.4 1031.4,320.4 1030.7,320.3 1030.7,320.3 1029.9,320.4 	"/>
	<polygon class="st0" points="1284.6,278.9 1284.9,279.5 1284.9,279.5 1285.3,280.2 1285.4,280.2 1285.9,280.7 1285.9,280.7 
		1286.5,281.1 1286.5,281.1 1287.2,281.4 1287.2,281.4 1287.9,281.6 1287.9,281.6 1288.6,281.7 1288.6,281.7 1289.3,281.6 
		1289.3,281.6 1290.1,281.4 1290.1,281.4 1290.7,281.1 1290.7,281.1 1291.3,280.7 1291.3,280.7 1291.9,280.2 1291.9,280.2 
		1292.3,279.5 1292.3,279.5 1292.6,278.9 1292.6,278.9 1292.8,278.2 1292.8,278.2 1292.9,277.4 1292.9,277.4 1292.8,276.7 
		1292.8,276.7 1292.6,276 1292.6,276 1292.3,275.3 1292.3,275.3 1291.9,274.7 1291.9,274.7 1291.3,274.2 1291.3,274.2 1290.7,273.7 
		1290.7,273.7 1290.1,273.4 1290.1,273.4 1289.3,273.2 1289.3,273.2 1288.6,273.2 1288.6,273.2 1287.9,273.2 1287.9,273.2 
		1287.2,273.4 1287.2,273.4 1286.5,273.7 1286.5,273.7 1285.9,274.2 1285.9,274.2 1285.4,274.7 1285.4,274.7 1284.9,275.3 
		1284.9,275.3 1284.6,276 1284.6,276 1284.4,276.7 1284.4,276.7 1284.4,277.4 1284.4,277.4 1284.4,278.2 1284.4,278.2 1284.6,278.9 
			"/>
	<polygon class="st0" points="1287.9,226.5 1287.2,226.7 1287.2,226.7 1286.5,227 1286.5,227 1285.9,227.4 1285.9,227.4 
		1285.4,227.9 1285.4,227.9 1284.9,228.5 1284.9,228.5 1284.6,229.2 1284.6,229.2 1284.4,229.9 1284.4,229.9 1284.4,230.6 
		1284.4,230.6 1284.4,231.4 1284.4,231.4 1284.6,232.1 1284.6,232.1 1284.9,232.8 1284.9,232.8 1285.3,233.4 1285.4,233.4 
		1285.9,233.9 1285.9,233.9 1286.5,234.3 1286.5,234.3 1287.2,234.6 1287.2,234.6 1287.9,234.8 1287.9,234.8 1288.6,234.9 
		1288.6,234.9 1289.3,234.8 1289.3,234.8 1290.1,234.6 1290.1,234.6 1290.7,234.3 1290.7,234.3 1291.3,233.9 1291.3,233.9 
		1291.9,233.4 1291.9,233.4 1292.3,232.8 1292.3,232.8 1292.6,232.1 1292.6,232.1 1292.8,231.4 1292.8,231.4 1292.9,230.7 
		1292.9,230.6 1292.8,229.9 1292.8,229.9 1292.6,229.2 1292.6,229.2 1292.3,228.5 1292.3,228.5 1291.9,227.9 1291.9,227.9 
		1291.3,227.4 1291.3,227.4 1290.7,227 1290.7,227 1290.1,226.7 1290.1,226.7 1289.3,226.5 1289.3,226.5 1288.6,226.4 1288.6,226.4 
		1287.9,226.5 	"/>
	<polygon class="st0" points="1280.1,239.2 1297.1,239.2 1297.1,239.2 1297.1,268.9 1297.1,268.9 1280.1,268.9 1280.1,268.9 
		1280.1,239.2 	"/>
</g>
</svg>
