<?xml version="1.0" encoding="utf-8"?>
<!-- Generator: Adobe Illustrator 22.0.1, SVG Export Plug-In . SVG Version: 6.00 Build 0)  -->
<svg version="1.1" id="Laag_1" xmlns="http://www.w3.org/2000/svg" xmlns:xlink="http://www.w3.org/1999/xlink" x="0px" y="0px"
	 viewBox="0 0 2340.7 1788.3" style="enable-background:new 0 0 2340.7 1788.3;" xml:space="preserve">
<style type="text/css">
	.st0{fill:none;stroke:#000000;stroke-width:0.1417;}
	.st1{fill:none;stroke:#000000;stroke-width:0.142;}
	.st2{fill:none;stroke:#2B4B9B;stroke-width:0.1417;}
</style>
<path class="st0" d="M371.4,253.1L371.4,253.1l0.6-0.4l0,0l0.7-0.3l0,0l0.7-0.2l0,0l0.7-0.1h0l0.7,0.1l0,0l0.7,0.2l0,0l0.7,0.3l0,0
	l0.6,0.4l0,0l0.5,0.5l0,0l0.4,0.6l0,0l0.3,0.7l0,0l0.2,0.7l0,0l0.1,0.7v0l-0.1,0.7l0,0l-0.2,0.7l0,0l-0.3,0.7l0,0l-0.4,0.6l0,0
	l-0.5,0.5l0,0l-0.6,0.4l0,0l-0.7,0.3l0,0l-0.7,0.2l0,0l-0.7,0.1h0l-0.7-0.1l0,0l-0.7-0.2l0,0L372,260l0,0l-0.6-0.4l0,0l-0.5-0.5l0,0
	l-0.4-0.6l0,0l-0.3-0.7l0,0l-0.2-0.7l0,0l-0.1-0.7v0l0.1-0.7l0,0l0.2-0.7l0,0l0.3-0.7l0,0l0.4-0.6l0,0L371.4,253.1z M234.4,66.4
	L234.4,66.4l-0.3,0.7v0l-0.4,0.6v0l-0.5,0.5v0l-0.6,0.4v0l-0.7,0.3v0l-0.7,0.2v0l-0.7,0.1l0,0l-0.7-0.1l0,0l-0.7-0.2l0,0l-0.7-0.3v0
	l-0.6-0.4l0,0l-0.5-0.5v0l-0.4-0.6v0l-0.3-0.7v0l-0.2-0.7v0l-0.1-0.7v0l0.1-0.7v0l0.2-0.7l0,0l0.3-0.7v0l0.4-0.6v0l0.5-0.5v0
	l0.6-0.4v0l0.7-0.3v0l0.7-0.2v0l0.7-0.1l0,0l0.7,0.1l0,0l0.7,0.2l0,0l0.7,0.3v0l0.6,0.4l0,0l0.5,0.5v0l0.4,0.6v0l0.3,0.7v0l0.2,0.7
	v0l0.1,0.7v0l-0.1,0.7v0L234.4,66.4z M262.7,559.6H121.3V537v0h3.5h0v-8.5v0h-3.5h0v-19.8v0h-8.5h0v19.8v0h-3.5h0v8.5v0h3.5h0v22.6
	v0h-0.1H50.4v-0.2V440.6H73h0v3.5v0h8.5h0v-3.5v0h19.8h0v-8.5v0H81.6h0v-3.5v0h-8.5h0v3.5v0H50.4h0v-0.2V347h0H36.2v-0.2V262h0h14.1
	v-0.2V177H73h0v3.5v0h8.5h0V177v0h19.8h0v-8.5v0H81.6h0v-3.5v0h-8.5h0v3.5v0H50.4h0v-0.2V49.4h0.1l62.2,0V72v0h-3.5h0v8.5v0h3.5h0
	v19.8v0h8.5h0V80.6v0h3.5h0v-8.5v0h-3.5h0V49.4v0h0.3l141.4,0v0V35.2h0.2H348v0v14.1h0.3l141.4,0V72v0h-3.5h0v8.5v0h3.5h0v19.8v0
	h8.5h0V80.6v0h3.5h0v-8.5v0h-3.5h0v0V49.4h0.1h62.2v1v509.2h-0.1h-62.2V537v0h3.5h0v-8.5v0h-3.5h0v-19.8v0h-8.5h0v19.8v0h-3.5h0v8.5
	v0h3.5h0v22.6v0h-0.3H348v0v14.1h-0.2H263v0v-14.1H262.7z M98.6,135.6L98.6,135.6l0.7-0.3v0l0.6-0.4v0l0.5-0.5v0l0.4-0.6v0l0.3-0.7
	l0,0l0.2-0.7v0l0.1-0.7v0l-0.1-0.7v0l-0.2-0.7v0l-0.3-0.7v0l-0.4-0.6v0l-0.5-0.5l0,0l-0.6-0.4v0l-0.7-0.3l0,0l-0.7-0.2l0,0l-0.7-0.1
	h0l-0.7,0.1v0l-0.7,0.2v0l-0.7,0.3v0l-0.6,0.4v0l-0.5,0.5v0l-0.4,0.6v0l-0.3,0.7l0,0l-0.2,0.7v0l-0.1,0.7v0l0.1,0.7v0l0.2,0.7v0
	l0.3,0.7v0l0.4,0.6v0l0.5,0.5l0,0l0.6,0.4v0l0.7,0.3l0,0l0.7,0.2l0,0l0.7,0.1h0l0.7-0.1v0L98.6,135.6z M374.1,69.2l0.7-0.1l0,0
	l0.7-0.2l0,0l0.7-0.3l0,0l0.6-0.4l0,0l0.5-0.5l0,0l0.4-0.6l0,0l0.3-0.7l0,0l0.2-0.7l0,0l0.1-0.7v0l-0.1-0.7l0,0l-0.2-0.7l0,0
	l-0.3-0.7l0,0l-0.4-0.6l0,0l-0.5-0.5l0,0l-0.6-0.4l0,0l-0.7-0.3l0,0l-0.7-0.2l0,0l-0.7-0.1l0,0l-0.7,0.1l0,0l-0.7,0.2l0,0l-0.7,0.3
	l0,0l-0.6,0.4l0,0l-0.5,0.5l0,0l-0.4,0.6l0,0l-0.3,0.7l0,0l-0.2,0.7l0,0l-0.1,0.7v0l0.1,0.7l0,0l0.2,0.7l0,0l0.3,0.7l0,0l0.4,0.6
	l0,0l0.5,0.5l0,0l0.6,0.4l0,0l0.7,0.3l0,0l0.7,0.2l0,0L374.1,69.2L374.1,69.2z M93.9,214.3L93.9,214.3l-0.4,0.6v0l-0.3,0.7l0,0
	l-0.2,0.7v0l-0.1,0.7v0l0.1,0.7v0l0.2,0.7v0l0.3,0.7v0l0.4,0.6v0l0.5,0.5l0,0l0.6,0.4v0l0.7,0.3l0,0l0.7,0.2l0,0l0.7,0.1h0l0.7-0.1
	v0l0.7-0.2v0l0.7-0.3v0l0.6-0.4v0l0.5-0.5v0l0.4-0.6v0l0.3-0.7l0,0l0.2-0.7v0l0.1-0.7v0l-0.1-0.7v0l-0.2-0.7v0l-0.3-0.7v0l-0.4-0.6
	v0l-0.5-0.5l0,0l-0.6-0.4v0l-0.7-0.3l0,0l-0.7-0.2l0,0l-0.7-0.1h0l-0.7,0.1v0l-0.7,0.2v0l-0.7,0.3v0l-0.6,0.4v0L93.9,214.3z
	 M226.2,257.1l0.2,0.7v0l0.3,0.7v0l0.4,0.6v0l0.5,0.5l0,0l0.6,0.4v0l0.7,0.3l0,0l0.7,0.2l0,0l0.7,0.1h0l0.7-0.1v0l0.7-0.2v0l0.7-0.3
	v0l0.6-0.4v0l0.5-0.5v0l0.4-0.6v0l0.3-0.7l0,0l0.2-0.7v0l0.1-0.7v0l-0.1-0.7v0l-0.2-0.7v0l-0.3-0.7v0l-0.4-0.6v0l-0.5-0.5l0,0
	l-0.6-0.4v0l-0.7-0.3l0,0l-0.7-0.2l0,0l-0.7-0.1h0l-0.7,0.1v0l-0.7,0.2v0l-0.7,0.3v0l-0.6,0.4v0l-0.5,0.5v0l-0.4,0.6v0l-0.3,0.7l0,0
	l-0.2,0.7v0l-0.1,0.7v0L226.2,257.1L226.2,257.1z"/>
<path class="st0" d="M682.1,438.5L682.1,438.5l0.4,0.6h0l0.5,0.5h0l0.6,0.4h0l0.7,0.3l0,0l0.7,0.2h0l0.7,0.1h0l0.7-0.1h0l0.7-0.2h0
	l0.7-0.3h0l0.6-0.4h0l0.5-0.5l0,0l0.4-0.6h0l0.3-0.7l0,0l0.2-0.7l0,0l0.1-0.7l0,0l-0.1-0.7h0l-0.2-0.7h0l-0.3-0.7h0l-0.4-0.6h0
	l-0.5-0.5h0l-0.6-0.4h0l-0.7-0.3l0,0l-0.7-0.2h0l-0.7-0.1h0l-0.7,0.1h0l-0.7,0.2h0l-0.7,0.3h0l-0.6,0.4h0l-0.5,0.5l0,0l-0.4,0.6h0
	l-0.3,0.7l0,0l-0.2,0.7l0,0l-0.1,0.7l0,0l0.1,0.7h0l0.2,0.7h0L682.1,438.5z M686.5,176.9l0.7-0.2l0,0l0.7-0.3l0,0l0.6-0.4l0,0
	l0.5-0.5l0,0l0.4-0.6l0,0l0.3-0.7l0,0l0.2-0.7l0,0l0.1-0.7l0,0l-0.1-0.7l0,0l-0.2-0.7l0,0l-0.3-0.7l0,0L689,170l0,0l-0.5-0.5l0,0
	l-0.6-0.4l0,0l-0.7-0.3l0,0l-0.7-0.2l0,0l-0.7-0.1h0l-0.7,0.1l0,0l-0.7,0.2l0,0l-0.7,0.3l0,0l-0.6,0.4l0,0l-0.5,0.5l0,0l-0.4,0.6
	l0,0l-0.3,0.7l0,0l-0.2,0.7l0,0l-0.1,0.7l0,0l0.1,0.7l0,0l0.2,0.7l0,0l0.3,0.7l0,0l0.4,0.6l0,0l0.5,0.5l0,0l0.6,0.4l0,0l0.7,0.3l0,0
	l0.7,0.2l0,0l0.7,0.1h0L686.5,176.9L686.5,176.9z M579.4,346.9v0.2h-14.1h0v212.2v0.4h42.4h0.1v14.1v0h56.6h0.1v-14.1v0h42.4h0.1
	V50.4v-1h-42.4h-0.1V35.3v0h-56.6h-0.1v14.1v0h-42.4h-0.1v212.2v0.4h14.1h0V346.9z M636.1,444.3l1.8,1.8l0,0l2.1,1.5l0,0l2.3,1.1h0
	l2.5,0.7h0l2.6,0.2h0l2.6-0.2h0l2.5-0.7l0,0l2.3-1.1h0l2.1-1.5l0,0l1.8-1.8l0,0l1.5-2.1l0,0l1.1-2.3l0,0l0.7-2.5l0,0l0.2-2.6l0,0
	l-0.2-2.6l0,0l-0.7-2.5l0,0l-1.1-2.3l0,0l-1.5-2.1l0,0l-1.8-1.8l0,0l-2.1-1.5l0,0l-2.3-1.1h0l-2.5-0.7h0l-2.6-0.2h0l-2.6,0.2h0
	l-2.5,0.7l0,0l-2.3,1.1h0l-2.1,1.5l0,0l-1.8,1.8l0,0l-1.5,2.1l0,0l-1.1,2.3l0,0l-0.7,2.5l0,0l-0.2,2.6l0,0l0.2,2.6l0,0l0.7,2.5l0,0
	l1.1,2.3l0,0L636.1,444.3L636.1,444.3z M576.3,174.2L576.3,174.2l-0.3,0.7l0,0l-0.4,0.6l0,0l-0.5,0.5l0,0l-0.6,0.4l0,0l-0.7,0.3l0,0
	l-0.7,0.2l0,0l-0.7,0.1h0l-0.7-0.1l0,0l-0.7-0.2l0,0l-0.7-0.3l0,0l-0.6-0.4l0,0l-0.5-0.5l0,0l-0.4-0.6l0,0l-0.3-0.7l0,0l-0.2-0.7
	l0,0l-0.1-0.7v0l0.1-0.7l0,0l0.2-0.7l0,0l0.3-0.7l0,0l0.4-0.6l0,0l0.5-0.5l0,0l0.6-0.4l0,0l0.7-0.3l0,0l0.7-0.2l0,0l0.7-0.1h0
	l0.7,0.1l0,0l0.7,0.2l0,0l0.7,0.3l0,0l0.6,0.4l0,0l0.5,0.5l0,0l0.4,0.6l0,0l0.3,0.7l0,0l0.2,0.7l0,0l0.1,0.7v0l-0.1,0.7l0,0
	L576.3,174.2z M574.5,432.6l0.6,0.4h0l0.5,0.5h0l0.4,0.6h0l0.3,0.7h0l0.2,0.7h0l0.1,0.7v0l-0.1,0.7l0,0l-0.2,0.7l0,0l-0.3,0.7h0
	l-0.4,0.6l0,0l-0.5,0.5h0l-0.6,0.4h0l-0.7,0.3h0l-0.7,0.2h0l-0.7,0.1h0l-0.7-0.1h0l-0.7-0.2l0,0l-0.7-0.3h0l-0.6-0.4h0l-0.5-0.5h0
	l-0.4-0.6h0l-0.3-0.7h0l-0.2-0.7h0l-0.1-0.7v0l0.1-0.7l0,0l0.2-0.7l0,0l0.3-0.7h0l0.4-0.6l0,0l0.5-0.5h0l0.6-0.4h0l0.7-0.3h0
	l0.7-0.2h0l0.7-0.1h0l0.7,0.1h0l0.7,0.2l0,0L574.5,432.6L574.5,432.6z M622,191.1h35.4V191v-55.2h-0.1H622v0.1L622,191.1L622,191.1z
	 M692.8,346.9V262h0h-14.1v0.2V347h0h14.1V346.9z"/>
<path class="st0" d="M826.9,136.7L826.9,136.7l0.7,0.3l0,0l0.6,0.4l0,0l0.5,0.5l0,0l0.4,0.6l0,0l0.3,0.7l0,0l0.2,0.7l0,0l0.1,0.7
	l0,0l-0.1,0.7l0,0l-0.2,0.7l0,0l-0.3,0.7l0,0l-0.4,0.6l0,0l-0.5,0.5l0,0l-0.6,0.4l0,0l-0.7,0.3l0,0l-0.7,0.2l0,0l-0.7,0.1h0
	l-0.7-0.1l0,0l-0.7-0.2l0,0l-0.7-0.3l0,0l-0.6-0.4l0,0l-0.5-0.5l0,0l-0.4-0.6l0,0l-0.3-0.7l0,0l-0.2-0.7l0,0l-0.1-0.7v0l0.1-0.7l0,0
	l0.2-0.7l0,0l0.3-0.7l0,0l0.4-0.6l0,0l0.5-0.5l0,0l0.6-0.4l0,0l0.7-0.3l0,0l0.7-0.2l0,0l0.7-0.1h0l0.7,0.1l0,0L826.9,136.7z
	 M830.3,564.6l-0.3,0.7l0,0l-0.2,0.7l0,0l-0.1,0.7l0,0l0.1,0.7h0l0.2,0.7h0l0.3,0.7h0l0.4,0.6h0l0.5,0.5h0l0.6,0.4h0l0.7,0.3l0,0
	l0.7,0.2h0l0.7,0.1h0l0.7-0.1h0l0.7-0.2h0l0.7-0.3h0l0.6-0.4h0l0.5-0.5l0,0l0.4-0.6h0l0.3-0.7l0,0l0.2-0.7l0,0l0.1-0.7l0,0l-0.1-0.7
	h0l-0.2-0.7h0l-0.3-0.7h0l-0.4-0.6h0l-0.5-0.5h0l-0.6-0.4h0l-0.7-0.3l0,0l-0.7-0.2h0l-0.7-0.1h0l-0.7,0.1h0l-0.7,0.2h0l-0.7,0.3h0
	l-0.6,0.4h0l-0.5,0.5l0,0L830.3,564.6L830.3,564.6z M823.9,357.5L823.9,357.5l0.7,0.3l0,0l0.7,0.2h0l0.7,0.1h0l0.7-0.1h0l0.7-0.2h0
	l0.7-0.3h0l0.6-0.4h0l0.5-0.5l0,0l0.4-0.6h0l0.3-0.7l0,0l0.2-0.7l0,0l0.1-0.7l0,0l-0.1-0.7h0l-0.2-0.7h0l-0.3-0.7h0l-0.4-0.6h0
	l-0.5-0.5h0l-0.6-0.4h0l-0.7-0.3l0,0l-0.7-0.2h0l-0.7-0.1h0l-0.7,0.1h0l-0.7,0.2h0l-0.7,0.3h0l-0.6,0.4h0l-0.5,0.5l0,0l-0.4,0.6h0
	l-0.3,0.7l0,0l-0.2,0.7l0,0l-0.1,0.7v0l0.1,0.7h0l0.2,0.7h0l0.3,0.7h0l0.4,0.6h0l0.5,0.5h0L823.9,357.5z M838.1,41.6l0.1,0.7l0,0
	l-0.1,0.7l0,0l-0.2,0.7l0,0l-0.3,0.7l0,0l-0.4,0.6l0,0l-0.5,0.5l0,0l-0.6,0.4l0,0l-0.7,0.3l0,0l-0.7,0.2l0,0l-0.7,0.1l0,0l-0.7-0.1
	l0,0l-0.7-0.2l0,0l-0.7-0.3l0,0l-0.6-0.4l0,0l-0.5-0.5l0,0l-0.4-0.6l0,0l-0.3-0.7l0,0l-0.2-0.7l0,0l-0.1-0.7l0,0l0.1-0.7l0,0
	l0.2-0.7l0,0l0.3-0.7l0,0l0.4-0.6l0,0l0.5-0.5l0,0l0.6-0.4l0,0l0.7-0.3l0,0l0.7-0.2l0,0l0.7-0.1l0,0l0.7,0.1l0,0l0.7,0.2l0,0
	l0.7,0.3l0,0l0.6,0.4l0,0l0.5,0.5l0,0l0.4,0.6l0,0l0.3,0.7l0,0L838.1,41.6L838.1,41.6z M737.9,350.7L737.9,350.7l0.7,0.1h0l0.7,0.2
	l0,0l0.7,0.3h0l0.6,0.4h0l0.5,0.5h0l0.4,0.6h0l0.3,0.7h0l0.2,0.7h0l0.1,0.7v0l-0.1,0.7l0,0l-0.2,0.7l0,0l-0.3,0.7h0l-0.4,0.6l0,0
	l-0.5,0.5h0l-0.6,0.4h0l-0.7,0.3h0l-0.7,0.2h0l-0.7,0.1h0l-0.7-0.1h0l-0.7-0.2l0,0l-0.7-0.3h0l-0.6-0.4h0l-0.5-0.5h0l-0.4-0.6h0
	l-0.3-0.7h0l-0.2-0.7h0l-0.1-0.7v0l0.1-0.7l0,0l0.2-0.7l0,0l0.3-0.7h0l0.4-0.6l0,0l0.5-0.5h0l0.6-0.4h0l0.7-0.3h0l0.7-0.2h0
	L737.9,350.7z M772.9,454l1,1.4l0,0l1.2,1.2l0,0l1.4,1l0,0l1.6,0.7l0,0l1.7,0.4h0l1.7,0.2h0l1.7-0.2h0l1.7-0.4h0l1.6-0.7l0,0l1.4-1
	l0,0l1.2-1.2l0,0l1-1.4l0,0l0.7-1.6l0,0l0.4-1.7l0,0l0.2-1.7l0,0l-0.2-1.7l0,0l-0.4-1.7l0,0l-0.7-1.6l0,0l-1-1.4l0,0l-1.2-1.2l0,0
	l-1.4-1l0,0l-1.6-0.7l0,0l-1.7-0.4h0l-1.7-0.2h0l-1.7,0.2h0l-1.7,0.4h0l-1.6,0.7l0,0l-1.4,1l0,0l-1.2,1.2l0,0l-1,1.4l0,0l-0.7,1.6
	l0,0l-0.4,1.7l0,0l-0.2,1.7l0,0l0.2,1.7l0,0l0.4,1.7l0,0L772.9,454L772.9,454z M724.9,43.1l0.2,0.7l0,0l0.3,0.7l0,0l0.4,0.6l0,0
	l0.5,0.5l0,0l0.6,0.4l0,0l0.7,0.3l0,0l0.7,0.2l0,0l0.7,0.1l0,0l0.7-0.1l0,0l0.7-0.2l0,0l0.7-0.3l0,0l0.6-0.4l0,0l0.5-0.5l0,0
	l0.4-0.6l0,0l0.3-0.7l0,0l0.2-0.7l0,0l0.1-0.7v0l-0.1-0.7l0,0l-0.2-0.7l0,0l-0.3-0.7l0,0l-0.4-0.6l0,0l-0.5-0.5l0,0l-0.6-0.4l0,0
	l-0.7-0.3l0,0l-0.7-0.2l0,0l-0.7-0.1l0,0l-0.7,0.1l0,0l-0.7,0.2l0,0l-0.7,0.3l0,0l-0.6,0.4l0,0l-0.5,0.5l0,0l-0.4,0.6l0,0l-0.3,0.7
	l0,0l-0.2,0.7l0,0l-0.1,0.7v0L724.9,43.1L724.9,43.1z M733.1,142.3l0.2,0.7l0,0l0.3,0.7l0,0l0.4,0.6l0,0l0.5,0.5l0,0l0.6,0.4l0,0
	l0.7,0.3l0,0l0.7,0.2l0,0l0.7,0.1h0l0.7-0.1l0,0l0.7-0.2l0,0l0.7-0.3l0,0l0.6-0.4l0,0l0.5-0.5l0,0l0.4-0.6l0,0l0.3-0.7l0,0l0.2-0.7
	l0,0l0.1-0.7v0l-0.1-0.7l0,0l-0.2-0.7l0,0l-0.3-0.7l0,0l-0.4-0.6l0,0l-0.5-0.5l0,0l-0.6-0.4l0,0l-0.7-0.3l0,0l-0.7-0.2l0,0l-0.7-0.1
	h0l-0.7,0.1l0,0l-0.7,0.2l0,0l-0.7,0.3l0,0l-0.6,0.4l0,0l-0.5,0.5l0,0l-0.4,0.6l0,0l-0.3,0.7l0,0l-0.2,0.7l0,0l-0.1,0.7v0
	L733.1,142.3L733.1,142.3z M724.9,567.5l0.2,0.7h0l0.3,0.7h0l0.4,0.6h0l0.5,0.5h0l0.6,0.4h0l0.7,0.3l0,0l0.7,0.2h0l0.7,0.1h0
	l0.7-0.1h0l0.7-0.2h0l0.7-0.3h0l0.6-0.4h0l0.5-0.5l0,0l0.4-0.6h0l0.3-0.7l0,0l0.2-0.7l0,0l0.1-0.7v0l-0.1-0.7h0l-0.2-0.7h0l-0.3-0.7
	h0l-0.4-0.6h0l-0.5-0.5h0l-0.6-0.4h0l-0.7-0.3l0,0l-0.7-0.2h0l-0.7-0.1h0l-0.7,0.1h0l-0.7,0.2h0l-0.7,0.3h0l-0.6,0.4h0l-0.5,0.5l0,0
	l-0.4,0.6h0l-0.3,0.7l0,0l-0.2,0.7l0,0l-0.1,0.7v0L724.9,567.5L724.9,567.5z M852.4,35.2H710.9h-0.3v537.5v1.1h141.4h0.3V36.3V35.2z
	 M818.4,360.8v-215h-0.1h-70.7v0.4v215h0.1h70.7V360.8z"/>
<path class="st0" d="M1180,782.9v70.7h0.1h28.3v-0.1v-70.7h-0.1H1180V782.9z M1251.5,1010.4l0.6-0.4h0l0.5-0.5l0,0l0.4-0.6h0
	l0.3-0.7l0,0l0.2-0.7l0,0l0.1-0.7l0,0l-0.1-0.7h0l-0.2-0.7h0l-0.3-0.7h0l-0.4-0.6h0l-0.5-0.5h0l-0.6-0.4h0l-0.7-0.3l0,0l-0.7-0.2h0
	l-0.7-0.1h0l-0.7,0.1h0l-0.7,0.2h0l-0.7,0.3h0l-0.6,0.4h0l-0.5,0.5l0,0l-0.4,0.6h0l-0.3,0.7l0,0l-0.2,0.7l0,0l-0.1,0.7l0,0l0.1,0.7
	h0l0.2,0.7h0l0.3,0.7h0l0.4,0.6h0l0.5,0.5h0l0.6,0.4h0l0.7,0.3l0,0l0.7,0.2h0l0.7,0.1h0l0.7-0.1h0l0.7-0.2h0L1251.5,1010.4
	L1251.5,1010.4z M1253.4,628.2L1253.4,628.2l0.2,0.7l0,0l0.1,0.7l0,0l-0.1,0.7l0,0l-0.2,0.7l0,0l-0.3,0.7l0,0l-0.4,0.6l0,0l-0.5,0.5
	l0,0l-0.6,0.4l0,0l-0.7,0.3l0,0l-0.7,0.2l0,0l-0.7,0.1h0l-0.7-0.1l0,0l-0.7-0.2l0,0l-0.7-0.3l0,0l-0.6-0.4l0,0l-0.5-0.5l0,0
	l-0.4-0.6l0,0l-0.3-0.7l0,0l-0.2-0.7l0,0l-0.1-0.7l0,0l0.1-0.7l0,0l0.2-0.7l0,0l0.3-0.7l0,0l0.4-0.6l0,0l0.5-0.5l0,0l0.6-0.4l0,0
	l0.7-0.3l0,0l0.7-0.2l0,0l0.7-0.1h0l0.7,0.1l0,0l0.7,0.2l0,0l0.7,0.3l0,0l0.6,0.4l0,0l0.5,0.5l0,0l0.4,0.6l0,0L1253.4,628.2z
	 M1126.5,747.5l2.5-0.2l0,0v-0.2v-99l0,0l11.3-8.5l4.8,6.3l0,0l-2.8,2.1l0,0l5.1,6.8l0,0l2.8-2.1l0,0l5.1,6.8l0,0l6.8-5.1l0,0
	l-5.1-6.8l0,0l2.8-2.1l0,0l-5.1-6.8l0,0l-2.8,2.1l0,0l-4.8-6.3l0,0l0.2-0.1l76.9-57.7l5.1,6.8l0,0l-2.8,2.1l0,0l5.1,6.8l0,0l2.8-2.1
	l0,0l5.1,6.8l0,0l6.8-5.1l0,0l-5.1-6.8l0,0l2.8-2.1l0,0l-5.1-6.8l0,0l-2.8,2.1l0,0l0,0l-5.1-6.8l0,0l11.3-8.5h0.1h28.3v1.1v537.5
	h-0.2h-113.2v0.1v28.3h-0.1H1129v-0.5V903.2h0h14.1v-0.2v-84.9h0H1129v-0.1v-42.4l-2.5-0.2l0,0l-2.4-0.6l0,0l-2.2-1l0,0l-2-1.4l0,0
	l-1.7-1.7l0,0l-1.4-2l0,0l-1-2.2l0,0l-0.6-2.4l0,0l-0.2-2.5l0,0l0.2-2.5l0,0l0.6-2.4l0,0l1-2.2l0,0l1.4-2l0,0l1.7-1.7l0,0l2-1.4l0,0
	l2.2-1l0,0L1126.5,747.5L1126.5,747.5z M1138.8,715.7L1138.8,715.7l0.5,0.5l0,0l0.4,0.6l0,0l0.3,0.7l0,0l0.2,0.7l0,0l0.1,0.7v0
	l-0.1,0.7l0,0l-0.2,0.7l0,0l-0.3,0.7l0,0l-0.4,0.6l0,0l-0.5,0.5l0,0l-0.6,0.4l0,0l-0.7,0.3l0,0l-0.7,0.2l0,0l-0.7,0.1h0l-0.7-0.1
	l0,0l-0.7-0.2l0,0l-0.7-0.3l0,0l-0.6-0.4l0,0l-0.5-0.5l0,0l-0.4-0.6l0,0l-0.3-0.7l0,0l-0.2-0.7l0,0l-0.1-0.7v0l0.1-0.7l0,0l0.2-0.7
	l0,0l0.3-0.7l0,0l0.4-0.6l0,0l0.5-0.5l0,0l0.6-0.4l0,0l0.7-0.3l0,0l0.7-0.2l0,0l0.7-0.1h0l0.7,0.1l0,0l0.7,0.2l0,0l0.7,0.3l0,0
	L1138.8,715.7z M1132,1003.9L1132,1003.9l-0.2-0.7h0l-0.1-0.7v0l0.1-0.7l0,0l0.2-0.7l0,0l0.3-0.7h0l0.4-0.6l0,0l0.5-0.5h0l0.6-0.4h0
	l0.7-0.3h0l0.7-0.2h0l0.7-0.1h0l0.7,0.1h0l0.7,0.2l0,0l0.7,0.3h0l0.6,0.4h0l0.5,0.5h0l0.4,0.6h0l0.3,0.7h0l0.2,0.7h0l0.1,0.7v0
	l-0.1,0.7l0,0l-0.2,0.7l0,0l-0.3,0.7h0l-0.4,0.6l0,0l-0.5,0.5h0l-0.6,0.4h0l-0.7,0.3h0l-0.7,0.2h0l-0.7,0.1h0l-0.7-0.1h0l-0.7-0.2
	l0,0l-0.7-0.3h0l-0.6-0.4h0l-0.5-0.5h0l-0.4-0.6h0L1132,1003.9z M1143.1,1121.5l1-0.1h0l1-0.3l0,0l0.9-0.4h0l0.8-0.6h0l0.7-0.7h0
	l0.6-0.8l0,0l0.4-0.9l0,0l0.3-1l0,0l0.1-1l0,0l-0.1-1h0l-0.3-1l0,0l-0.4-0.9l0,0l-0.6-0.8l0,0l-0.7-0.7h0l-0.8-0.6h0l-0.9-0.4h0
	l-1-0.3l0,0l-1-0.1h0l-1,0.1h0l-1,0.3l0,0l-0.9,0.4h0l-0.8,0.6h0l-0.7,0.7h0l-0.6,0.8l0,0l-0.4,0.9l0,0l-0.3,1l0,0l-0.1,1l0,0l0.1,1
	h0l0.3,1l0,0l0.4,0.9l0,0l0.6,0.8l0,0l0.7,0.7h0l0.8,0.6h0l0.9,0.4h0l1,0.3l0,0L1143.1,1121.5L1143.1,1121.5z M1228.2,1087.4v-14.1
	h-0.1h-56.6v0v14.1h0.1L1228.2,1087.4L1228.2,1087.4z M1242.3,775.7h14.1h0v84.9v0.2h-14.1h0v-84.9V775.7z"/>
<path class="st0" d="M939.5,781.7v0.2v84.9h0h14.1v-0.2v-84.9h0H939.5z M948.7,1009l0.6,0.4h0l0.5,0.5h0l0.4,0.6h0l0.3,0.7h0
	l0.2,0.7h0l0.1,0.7l0,0l-0.1,0.7l0,0l-0.2,0.7l0,0l-0.3,0.7h0l-0.4,0.6l0,0l-0.5,0.5h0l-0.6,0.4h0l-0.7,0.3h0l-0.7,0.2h0l-0.7,0.1h0
	l-0.7-0.1h0l-0.7-0.2l0,0l-0.7-0.3h0l-0.6-0.4h0l-0.5-0.5h0l-0.4-0.6h0l-0.3-0.7h0l-0.2-0.7h0l-0.1-0.7l0,0l0.1-0.7l0,0l0.2-0.7l0,0
	l0.3-0.7h0l0.4-0.6l0,0l0.5-0.5h0l0.6-0.4h0l0.7-0.3h0l0.7-0.2h0l0.7-0.1h0l0.7,0.1h0l0.7,0.2l0,0L948.7,1009L948.7,1009z
	 M942.9,637.8l-0.3-0.7l0,0l-0.2-0.7l0,0l-0.1-0.7l0,0l0.1-0.7l0,0l0.2-0.7l0,0l0.3-0.7l0,0l0.4-0.6l0,0l0.5-0.5l0,0l0.6-0.4l0,0
	l0.7-0.3l0,0l0.7-0.2l0,0l0.7-0.1h0l0.7,0.1l0,0l0.7,0.2l0,0l0.7,0.3l0,0l0.6,0.4l0,0l0.5,0.5l0,0l0.4,0.6l0,0l0.3,0.7l0,0l0.2,0.7
	l0,0l0.1,0.7l0,0l-0.1,0.7l0,0l-0.2,0.7l0,0l-0.3,0.7l0,0l-0.4,0.6l0,0l-0.5,0.5l0,0l-0.6,0.4l0,0l-0.7,0.3l0,0l-0.7,0.2l0,0
	l-0.7,0.1h0l-0.7-0.1l0,0l-0.7-0.2l0,0l-0.7-0.3l0,0l-0.6-0.4l0,0l-0.5-0.5l0,0L942.9,637.8L942.9,637.8z M830.5,728.2l0.6,0.4l0,0
	l0.7,0.3l0,0l0.7,0.2l0,0l0.7,0.1h0l0.7-0.1l0,0l0.7-0.2l0,0l0.7-0.3l0,0l0.6-0.4l0,0l0.5-0.5l0,0l0.4-0.6l0,0l0.3-0.7l0,0l0.2-0.7
	l0,0l0.1-0.7v0l-0.1-0.7l0,0l-0.2-0.7l0,0l-0.3-0.7l0,0l-0.4-0.6l0,0l-0.5-0.5l0,0l-0.6-0.4l0,0l-0.7-0.3l0,0l-0.7-0.2l0,0l-0.7-0.1
	h0l-0.7,0.1l0,0l-0.7,0.2l0,0l-0.7,0.3l0,0l-0.6,0.4l0,0l-0.5,0.5l0,0l-0.4,0.6l0,0l-0.3,0.7l0,0l-0.2,0.7l0,0L829,725v0l0.1,0.7
	l0,0l0.2,0.7l0,0l0.3,0.7l0,0l0.4,0.6l0,0L830.5,728.2L830.5,728.2z M836,1011.7L836,1011.7l0.5-0.5l0,0l0.4-0.6h0l0.3-0.7l0,0
	l0.2-0.7l0,0l0.1-0.7v0l-0.1-0.7h0l-0.2-0.7h0l-0.3-0.7h0l-0.4-0.6h0l-0.5-0.5h0l-0.6-0.4h0l-0.7-0.3l0,0l-0.7-0.2h0l-0.7-0.1h0
	l-0.7,0.1h0l-0.7,0.2h0l-0.7,0.3h0l-0.6,0.4h0l-0.5,0.5l0,0l-0.4,0.6h0l-0.3,0.7l0,0l-0.2,0.7l0,0l-0.1,0.7v0l0.1,0.7h0l0.2,0.7h0
	l0.3,0.7h0l0.4,0.6h0l0.5,0.5h0l0.6,0.4h0l0.7,0.3l0,0l0.7,0.2h0l0.7,0.1h0l0.7-0.1h0l0.7-0.2h0l0.7-0.3h0L836,1011.7z M845.2,1119
	l0.4,0.9l0,0l0.3,1h0l0.1,1l0,0l-0.1,1l0,0l-0.3,1l0,0l-0.4,0.9l0,0l-0.6,0.8h0l-0.7,0.7h0l-0.8,0.6h0l-0.9,0.4l0,0l-1,0.3h0l-1,0.1
	h0l-1-0.1l0,0l-1-0.3h0l-0.9-0.4h0l-0.8-0.6h0l-0.7-0.7l0,0l-0.6-0.8l0,0l-0.4-0.9l0,0l-0.3-1h0l-0.1-1l0,0l0.1-1l0,0l0.3-1l0,0
	l0.4-0.9l0,0l0.6-0.8h0l0.7-0.7h0l0.8-0.6h0l0.9-0.4l0,0l1-0.3h0l1-0.1h0l1,0.1l0,0l1,0.3h0l0.9,0.4h0l0.8,0.6h0l0.7,0.7l0,0
	L845.2,1119L845.2,1119z M812.8,772.3l1,2.2l0,0l1.4,2l0,0l1.7,1.7l0,0l2,1.4l0,0l2.2,1l0,0l2.4,0.6l0,0l2.5,0.2v42.4v0.1h14.1h0
	v84.9v0.2h-14.1h0v226.3v0.5h28.3h0.1v-28.3v-0.1h113.2h0.2V570.1v-1.1h-28.3h-0.1l-11.3,8.5l0,0l5.1,6.8l0,0l0,0l2.8-2.1l0,0
	l5.1,6.8l0,0l-2.8,2.1l0,0l5.1,6.8l0,0l-6.8,5.1l0,0l-5.1-6.8l0,0l-2.8,2.1l0,0l-5.1-6.8l0,0l2.8-2.1l0,0l-5.1-6.8l-76.9,57.7
	l-0.2,0.1l0,0l4.8,6.3l0,0l2.8-2.1l0,0l5.1,6.8l0,0l-2.8,2.1l0,0l5.1,6.8l0,0l-6.8,5.1l0,0l-5.1-6.8l0,0l-2.8,2.1l0,0l-5.1-6.8l0,0
	l2.8-2.1l0,0l-4.8-6.3l-11.3,8.5l0,0v99v0.2l0,0l-2.5,0.2l0,0l-2.4,0.6l0,0l-2.2,1l0,0l-2,1.4l0,0l-1.7,1.7l0,0l-1.4,2l0,0l-1,2.2
	l0,0l-0.6,2.4l0,0l-0.2,2.5l0,0l0.2,2.5l0,0L812.8,772.3L812.8,772.3z M868.7,1079.3h56.6h0.1v14.1v0h-56.6h-0.1V1079.3
	L868.7,1079.3z"/>
<path class="st0" d="M273,843.1L273,843.1l-0.7,0.3l0,0l-0.6,0.4l0,0l-0.5,0.5l0,0l-0.4,0.6l0,0l-0.3,0.7l0,0l-0.2,0.7l0,0l-0.1,0.7
	v0l0.1,0.7l0,0l0.2,0.7l0,0l0.3,0.7l0,0l0.4,0.6l0,0l0.5,0.5l0,0l0.6,0.4l0,0l0.7,0.3l0,0l0.7,0.2l0,0l0.7,0.1l0,0l0.7-0.1l0,0
	l0.7-0.2l0,0l0.7-0.3l0,0l0.6-0.4l0,0l0.5-0.5l0,0l0.4-0.6l0,0l0.3-0.7l0,0l0.2-0.7l0,0l0.1-0.7v0l-0.1-0.7l0,0l-0.2-0.7l0,0
	l-0.3-0.7l0,0l-0.4-0.6l0,0l-0.5-0.5l0,0l-0.6-0.4l0,0l-0.7-0.3l0,0l-0.7-0.2l0,0l-0.7-0.1l0,0l-0.7,0.1l0,0L273,843.1z
	 M327.5,860.4L327.5,860.4l-2.4,0.6l0,0l-2.5,0.2l0,0l-2.5-0.2l0,0l-2.4-0.6l0,0l-2.2-1l0,0l-2-1.4l0,0l-1.7-1.7l0,0l-1.4-2l0,0
	l-1-2.2l0,0l-0.6-2.4l0,0l-0.2-2.5l0,0l0.2-2.5l0,0l0.6-2.4l0,0l1-2.2l0,0l1.4-2l0,0l1.7-1.7l0,0l2-1.4l0,0l2.2-1l0,0l2.4-0.6l0,0
	l2.5-0.2l0,0l2.5,0.2l0,0l2.4,0.6l0,0l2.2,1l0,0l2,1.4l0,0l1.7,1.7l0,0l1.4,2l0,0l1,2.2l0,0l0.6,2.4v0l0.2,2.5v0l-0.2,2.5v0
	l-0.6,2.4v0l-1,2.2l0,0l-1.4,2l0,0l-1.7,1.7l0,0l-2,1.4l0,0L327.5,860.4z M117.9,1079.5L117.9,1079.5h-3.5v0v22.6h94.8h0.2v14.1v0
	h84.9h0.2v-14.1v0h94.8h0.2v0v-22.6h0h-3.5v0v-8.5h0h3.5v0v-19.8h0h8.5v0v19.8h0h3.5v0v8.5h0h-3.5v0v22.6h66.5h0.1V983.4v-0.2h0
	h-22.6v0v3.5h0h-8.5v0v-3.5h0h-19.8v0v-8.5h0h19.8v0v-3.5h0h8.5v0v3.5h0h22.6v-84.9v-0.2h14.1h0v-84.9v-0.2h-14.1h0v-84.9v-0.2h0
	h-22.6v0v3.5h0h-8.5v0v-3.5h0h-19.8v0V711h0h19.8v0v-3.5h0h8.5v0v3.5h0h22.6V592.2v-0.2h-66.5h-0.1v0v22.6h0h3.5v0v8.5h0h-3.5v0V643
	h0h-8.5v0v-19.8h0h-3.5v0v-8.5h0h3.5v0v-22.6h-94.8h-0.2v-14.1v0h-84.9h-0.2v14.1v0h-94.8h-0.2v0v22.6h0h3.5v0v8.5h0h-3.5v0V643h0
	h-8.5v0v-19.8h0h-3.5v0v-8.5h0h3.5v0v-22.6H39.4h-0.1v509.2v1h66.5h0.1v0v-22.6h0h-3.5v0v-8.5h0h3.5v0v-19.8h0h8.5v0v19.8h0h3.5v0
	V1079.5z M232.4,849.8L232.4,849.8l-0.5,0.5l0,0l-0.6,0.4l0,0l-0.7,0.3l0,0l-0.7,0.2l0,0l-0.7,0.1l0,0l-0.7-0.1l0,0l-0.7-0.2l0,0
	l-0.7-0.3l0,0l-0.6-0.4l0,0l-0.5-0.5l0,0l-0.4-0.6l0,0l-0.3-0.7l0,0l-0.2-0.7l0,0l-0.1-0.7v0l0.1-0.7l0,0l0.2-0.7l0,0l0.3-0.7l0,0
	l0.4-0.6l0,0l0.5-0.5l0,0l0.6-0.4l0,0l0.7-0.3l0,0l0.7-0.2l0,0l0.7-0.1l0,0l0.7,0.1l0,0l0.7,0.2l0,0l0.7,0.3l0,0l0.6,0.4l0,0
	l0.5,0.5l0,0l0.4,0.6l0,0l0.3,0.7l0,0l0.2,0.7l0,0l0.1,0.7v0l-0.1,0.7l0,0l-0.2,0.7l0,0l-0.3,0.7l0,0L232.4,849.8z M251.1,878.2
	l-0.7-0.2l0,0l-0.7-0.3l0,0l-0.6-0.4l0,0l-0.5-0.5l0,0l-0.4-0.6l0,0l-0.3-0.7l0,0l-0.2-0.7l0,0l-0.1-0.7v0l0.1-0.7l0,0l0.2-0.7l0,0
	l0.3-0.7l0,0l0.4-0.6l0,0l0.5-0.5l0,0l0.6-0.4l0,0l0.7-0.3l0,0l0.7-0.2l0,0l0.7-0.1h0l0.7,0.1l0,0l0.7,0.2l0,0l0.7,0.3l0,0l0.6,0.4
	l0,0l0.5,0.5l0,0l0.4,0.6l0,0l0.3,0.7l0,0l0.2,0.7l0,0l0.1,0.7v0l-0.1,0.7l0,0l-0.2,0.7l0,0l-0.3,0.7l0,0l-0.4,0.6l0,0l-0.5,0.5l0,0
	l-0.6,0.4l0,0l-0.7,0.3l0,0l-0.7,0.2l0,0l-0.7,0.1h0L251.1,878.2L251.1,878.2z M301.4,1074.1l-0.7,0.3l0,0l-0.6,0.4l0,0l-0.5,0.5
	l0,0l-0.4,0.6l0,0l-0.3,0.7l0,0l-0.2,0.7l0,0l-0.1,0.7l0,0l0.1,0.7l0,0l0.2,0.7l0,0l0.3,0.7l0,0l0.4,0.6l0,0l0.5,0.5l0,0l0.6,0.4
	l0,0l0.7,0.3l0,0l0.7,0.2l0,0l0.7,0.1l0,0l0.7-0.1l0,0l0.7-0.2l0,0l0.7-0.3l0,0l0.6-0.4l0,0l0.5-0.5l0,0l0.4-0.6l0,0l0.3-0.7l0,0
	l0.2-0.7l0,0l0.1-0.7v0l-0.1-0.7l0,0l-0.2-0.7l0,0l-0.3-0.7l0,0l-0.4-0.6l0,0l-0.5-0.5l0,0l-0.6-0.4l0,0l-0.7-0.3l0,0l-0.7-0.2l0,0
	l-0.7-0.1h0l-0.7,0.1l0,0L301.4,1074.1L301.4,1074.1z M263.7,845l-0.5-2l0,0l-0.9-1.9l0,0l-1.2-1.7l0,0l-1.5-1.5l0,0l-1.7-1.2l0,0
	l-1.9-0.9l0,0l-2-0.5l0,0l-2.1-0.2l0,0l-2.1,0.2l0,0l-2,0.5l0,0l-1.9,0.9l0,0l-1.7,1.2l0,0l-1.5,1.5l0,0l-1.2,1.7l0,0l-0.9,1.9l0,0
	l-0.5,2l0,0l-0.2,2.1l0,0l0.2,2.1l0,0l0.5,2l0,0l0.9,1.9l0,0l1.2,1.7l0,0l1.5,1.5l0,0l1.7,1.2l0,0l1.9,0.9l0,0l2,0.5l0,0l2.1,0.2
	l0,0l2.1-0.2l0,0l2-0.5l0,0l1.9-0.9l0,0l1.7-1.2l0,0l1.5-1.5l0,0l1.2-1.7l0,0l0.9-1.9l0,0l0.5-2l0,0l0.2-2.1l0,0L263.7,845
	L263.7,845z M353.8,1077.3l-0.2-0.7v0l-0.3-0.7v0l-0.4-0.6v0l-0.5-0.5l0,0l-0.6-0.4v0l-0.7-0.3l0,0l-0.7-0.2l0,0l-0.7-0.1h0
	l-0.7,0.1v0l-0.7,0.2v0l-0.7,0.3v0l-0.6,0.4v0l-0.5,0.5v0l-0.4,0.6v0l-0.3,0.7l0,0l-0.2,0.7v0l-0.1,0.7v0l0.1,0.7v0l0.2,0.7v0
	l0.3,0.7v0l0.4,0.6v0l0.5,0.5l0,0l0.6,0.4v0l0.7,0.3l0,0l0.7,0.2l0,0l0.7,0.1l0,0l0.7-0.1v0l0.7-0.2v0l0.7-0.3v0l0.6-0.4v0l0.5-0.5
	v0l0.4-0.6v0l0.3-0.7l0,0l0.2-0.7v0l0.1-0.7v0L353.8,1077.3L353.8,1077.3z M256,819.4l-0.2-0.7h0l-0.3-0.7h0l-0.4-0.6h0l-0.5-0.5h0
	l-0.6-0.4h0l-0.7-0.3l0,0l-0.7-0.2h0l-0.7-0.1h0l-0.7,0.1h0l-0.7,0.2h0l-0.7,0.3h0l-0.6,0.4h0l-0.5,0.5l0,0l-0.4,0.6h0l-0.3,0.7l0,0
	l-0.2,0.7l0,0l-0.1,0.7v0l0.1,0.7l0,0l0.2,0.7l0,0l0.3,0.7l0,0l0.4,0.6l0,0l0.5,0.5l0,0l0.6,0.4l0,0l0.7,0.3l0,0l0.7,0.2l0,0
	l0.7,0.1h0l0.7-0.1l0,0l0.7-0.2l0,0l0.7-0.3l0,0l0.6-0.4l0,0l0.5-0.5l0,0l0.4-0.6l0,0l0.3-0.7l0,0l0.2-0.7l0,0l0.1-0.7v0L256,819.4
	L256,819.4z M339.7,1069.6v17v0h-24h0v-17v0H339.7L339.7,1069.6z"/>
<path class="st0" d="M482.8,580.1h24v22.6v0h-3.5h0v8.5v0h3.5h0v19.8v0h8.5h0v-19.8v0h3.5h0v-8.5v0h-3.5h0v-22.6v0h0h24v0v-14.1h0.1
	h42.4v0v14.1h0h24v22.6v0h-3.5h0v8.5v0h3.5h0v19.8v0h8.5h0v-19.8v0h3.5h0v-8.5v0h-3.5h0v-22.6v0h0h21.2v1v509.2h0h-21.2v-22.6v0h3.5
	h0v-8.5v0h-3.5h0v-19.8v0h-8.5h0v19.8v0h-3.5h0v8.5v0h3.5h0v22.6v0h0h-24v0v14.1h-0.1h-42.4v0v-14.1h0h-24v-22.6v0h3.5h0v-8.5v0
	h-3.5h0v-19.8v0h-8.5h0v19.8v0h-3.5h0v8.5v0h3.5h0v22.6v0h0h-24v-0.4V877.7h0h14.1v-0.2v-84.9h0h-14.1v-0.4L482.8,580.1L482.8,580.1
	z M489.8,958.5L489.8,958.5l0.7,0.1h0l0.7,0.2l0,0l0.7,0.3h0l0.6,0.4h0l0.5,0.5h0l0.4,0.6h0l0.3,0.7h0l0.2,0.7h0l0.1,0.7v0l-0.1,0.7
	l0,0l-0.2,0.7l0,0l-0.3,0.7h0l-0.4,0.6l0,0l-0.5,0.5h0l-0.6,0.4h0l-0.7,0.3h0l-0.7,0.2h0l-0.7,0.1h0l-0.7-0.1h0l-0.7-0.2l0,0
	l-0.7-0.3h0l-0.6-0.4h0l-0.5-0.5h0l-0.4-0.6h0l-0.3-0.7h0l-0.2-0.7h0l-0.1-0.7v0l0.1-0.7l0,0l0.2-0.7l0,0l0.3-0.7h0l0.4-0.6l0,0
	l0.5-0.5h0l0.6-0.4h0l0.7-0.3h0l0.7-0.2h0L489.8,958.5z M493.8,706.2l0.2,0.7l0,0l0.1,0.7v0l-0.1,0.7l0,0l-0.2,0.7l0,0l-0.3,0.7l0,0
	l-0.4,0.6l0,0l-0.5,0.5l0,0l-0.6,0.4l0,0l-0.7,0.3l0,0l-0.7,0.2l0,0l-0.7,0.1h0l-0.7-0.1l0,0l-0.7-0.2l0,0l-0.7-0.3l0,0l-0.6-0.4
	l0,0l-0.5-0.5l0,0l-0.4-0.6l0,0l-0.3-0.7l0,0l-0.2-0.7l0,0l-0.1-0.7v0l0.1-0.7l0,0l0.2-0.7l0,0l0.3-0.7l0,0l0.4-0.6l0,0l0.5-0.5l0,0
	l0.6-0.4l0,0l0.7-0.3l0,0l0.7-0.2l0,0l0.7-0.1h0l0.7,0.1l0,0l0.7,0.2l0,0l0.7,0.3l0,0l0.6,0.4l0,0l0.5,0.5l0,0l0.4,0.6l0,0
	L493.8,706.2L493.8,706.2z"/>
<path class="st1" d="M1275.2,564.3h21.2v22.6v0h-3.5h0v8.5v0h3.5h0v19.8v0h8.5h0v-19.8v0h3.5h0V587v0h-3.5h0v-22.6v0h0h24v0v-14.1
	h0.1h42.4v0v14.1h0h24v22.6v0h-3.5h0v8.5v0h3.5h0v19.8v0h8.5h0v-19.8v0h3.5h0V587v0h-3.5h0v-22.6v0h0h24v0.4v212.2h0H1414v0.2v84.9
	h0h14.1v0.4v212.2h0h-24v-22.6v0h3.5h0v-8.5v0h-3.5h0v-19.8v0h-8.5h0v19.8v0h-3.5h0v8.5v0h3.5h0v22.6v0h0h-24v0v14.1h-0.1H1329v0
	v-14.1h0h-24v-22.6v0h3.5h0v-8.5v0h-3.5h0v-19.8v0h-8.5h0v19.8v0h-3.5h0v8.5v0h3.5h0v22.6v0h0h-24v0l0,0h0h2.8v-1L1275.2,564.3
	L1275.2,564.3L1275.2,564.3z M1424.4,694.6L1424.4,694.6l0.4-0.6h0l0.3-0.7v0l0.2-0.7v0l0.1-0.7v0l-0.1-0.7l0,0l-0.2-0.7h0l-0.3-0.7
	h0l-0.4-0.6h0l-0.5-0.5h0l-0.6-0.4h0l-0.7-0.3l0,0l-0.7-0.2h0l-0.7-0.1h0l-0.7,0.1h0l-0.7,0.2h0l-0.7,0.3h0l-0.6,0.4h0l-0.5,0.5l0,0
	l-0.4,0.6l0,0l-0.3,0.7v0l-0.2,0.7v0l-0.1,0.7v0l0.1,0.7l0,0l0.2,0.7l0,0l0.3,0.7h0l0.4,0.6h0l0.5,0.5h0l0.6,0.4h0l0.7,0.3l0,0
	l0.7,0.2h0l0.7,0.1h0l0.7-0.1h0l0.7-0.2h0l0.7-0.3h0l0.6-0.4h0L1424.4,694.6z M1419.7,950.9l-0.7-0.3l0,0l-0.6-0.4l0,0l-0.5-0.5l0,0
	l-0.4-0.6l0,0l-0.3-0.7v0l-0.2-0.7v0l-0.1-0.7v0l0.1-0.7v0l0.2-0.7v0l0.3-0.7v0l0.4-0.6l0,0l0.5-0.5h0l0.6-0.4l0,0l0.7-0.3l0,0
	l0.7-0.2h0l0.7-0.1h0l0.7,0.1h0l0.7,0.2l0,0l0.7,0.3h0l0.6,0.4l0,0l0.5,0.5l0,0l0.4,0.6h0l0.3,0.7l0,0l0.2,0.7v0l0.1,0.7v0l-0.1,0.7
	v0l-0.2,0.7l0,0l-0.3,0.7h0l-0.4,0.6l0,0l-0.5,0.5h0l-0.6,0.4l0,0l-0.7,0.3h0l-0.7,0.2h0l-0.7,0.1h0l-0.7-0.1h0L1419.7,950.9
	L1419.7,950.9z"/>
<path class="st0" d="M793.2,664.6l0.7,0.2l0,0l0.7,0.1h0l0.7-0.1l0,0l0.7-0.2l0,0l0.7-0.3l0,0l0.6-0.4l0,0l0.5-0.5l0,0l0.4-0.6l0,0
	l0.3-0.7l0,0l0.2-0.7l0,0l0.1-0.7v0l-0.1-0.7l0,0l-0.2-0.7l0,0l-0.3-0.7l0,0l-0.4-0.6l0,0l-0.5-0.5l0,0l-0.6-0.4l0,0l-0.7-0.3l0,0
	l-0.7-0.2l0,0l-0.7-0.1h0l-0.7,0.1l0,0l-0.7,0.2l0,0l-0.7,0.3l0,0l-0.6,0.4l0,0l-0.5,0.5l0,0l-0.4,0.6l0,0l-0.3,0.7l0,0l-0.2,0.7
	l0,0l-0.1,0.7v0l0.1,0.7l0,0l0.2,0.7l0,0l0.3,0.7l0,0l0.4,0.6l0,0l0.5,0.5l0,0l0.6,0.4l0,0L793.2,664.6L793.2,664.6z M698.2,1082.5
	l0.5,0.5h0l0.4,0.6h0l0.3,0.7h0l0.2,0.7h0l0.1,0.7v0l-0.1,0.7l0,0l-0.2,0.7l0,0l-0.3,0.7h0l-0.4,0.6l0,0l-0.5,0.5h0l-0.6,0.4h0
	l-0.7,0.3h0l-0.7,0.2h0l-0.7,0.1h0l-0.7-0.1h0l-0.7-0.2l0,0l-0.7-0.3h0l-0.6-0.4h0l-0.5-0.5h0l-0.4-0.6h0l-0.3-0.7h0l-0.2-0.7h0
	l-0.1-0.7v0l0.1-0.7l0,0l0.2-0.7l0,0l0.3-0.7h0l0.4-0.6l0,0l0.5-0.5h0l0.6-0.4h0l0.7-0.3h0l0.7-0.2h0l0.7-0.1h0l0.7,0.1h0l0.7,0.2
	l0,0l0.7,0.3h0L698.2,1082.5L698.2,1082.5z M676.9,1018.7l0.5,0.5h0l0.4,0.6h0l0.3,0.7h0l0.2,0.7h0l0.1,0.7v0l-0.1,0.7l0,0l-0.2,0.7
	l0,0l-0.3,0.7h0l-0.4,0.6l0,0l-0.5,0.5h0l-0.6,0.4h0l-0.7,0.3h0l-0.7,0.2h0l-0.7,0.1h0l-0.7-0.1h0l-0.7-0.2l0,0l-0.7-0.3h0l-0.6-0.4
	h0l-0.5-0.5h0l-0.4-0.6h0l-0.3-0.7h0l-0.2-0.7h0l-0.1-0.7v0l0.1-0.7l0,0l0.2-0.7l0,0l0.3-0.7h0l0.4-0.6l0,0l0.5-0.5h0l0.6-0.4h0
	l0.7-0.3h0l0.7-0.2h0l0.7-0.1h0l0.7,0.1h0l0.7,0.2l0,0l0.7,0.3h0L676.9,1018.7L676.9,1018.7z M776.3,1120.5L776.3,1120.5l-0.1,0.7v0
	l0.1,0.7h0l0.2,0.7h0l0.3,0.7h0l0.4,0.6h0l0.5,0.5h0l0.6,0.4h0l0.7,0.3l0,0l0.7,0.2h0l0.7,0.1h0l0.7-0.1h0l0.7-0.2h0l0.7-0.3h0
	l0.6-0.4h0l0.5-0.5l0,0l0.4-0.6h0l0.3-0.7l0,0l0.2-0.7l0,0l0.1-0.7v0l-0.1-0.7h0l-0.2-0.7h0l-0.3-0.7h0l-0.4-0.6h0l-0.5-0.5h0
	l-0.6-0.4h0l-0.7-0.3l0,0l-0.7-0.2h0l-0.7-0.1h0l-0.7,0.1h0l-0.7,0.2h0l-0.7,0.3h0l-0.6,0.4h0l-0.5,0.5l0,0l-0.4,0.6h0l-0.3,0.7l0,0
	L776.3,1120.5z M723.8,1092.8L723.8,1092.8h42.5v0v-14.1h-0.1h-42.4v0V1092.8z M694,656.6L694,656.6l0.7-0.2l0,0l0.7-0.1h0l0.7,0.1
	l0,0l0.7,0.2l0,0l0.7,0.3l0,0l0.6,0.4l0,0l0.5,0.5l0,0l0.4,0.6l0,0l0.3,0.7l0,0l0.2,0.7l0,0l0.1,0.7v0l-0.1,0.7l0,0l-0.2,0.7l0,0
	l-0.3,0.7l0,0l-0.4,0.6l0,0l-0.5,0.5l0,0l-0.6,0.4l0,0l-0.7,0.3l0,0l-0.7,0.2l0,0l-0.7,0.1h0l-0.7-0.1l0,0l-0.7-0.2l0,0l-0.7-0.3
	l0,0l-0.6-0.4l0,0l-0.5-0.5l0,0l-0.4-0.6l0,0l-0.3-0.7l0,0l-0.2-0.7l0,0l-0.1-0.7v0l0.1-0.7l0,0l0.2-0.7l0,0l0.3-0.7l0,0l0.4-0.6
	l0,0l0.5-0.5l0,0l0.6-0.4l0,0L694,656.6z M794.6,1135.4h-28.3l-0.1-0.1L738,1107h-0.1h-70.7v-0.4V922.8h0h14.1v-0.2v-84.9h0h-14.1
	v-0.4V653.5h0.1h56.6v0v14.1h0.1h42.4v0v-14.1h0.1H823v0.2v97.6l-2.7,0.2l0,0l-2.6,0.7l0,0l-2.5,1.1l0,0l-2.2,1.6l0,0l-1.9,1.9l0,0
	l-1.6,2.2l0,0l-1.1,2.5l0,0l-0.7,2.6l0,0l-0.2,2.7l0,0l0.2,2.7l0,0l0.7,2.6l0,0l1.1,2.5l0,0l1.6,2.2l0,0l1.9,1.9l0,0l2.2,1.6l0,0
	l2.5,1.1l0,0l2.6,0.7l0,0l2.7,0.2l0,0v0.6V1107h0h-14.1l0,0l-14.1,14.1v0L794.6,1135.4L794.6,1135.4z M670,751.9L670,751.9l-0.1,0.7
	v0l0.1,0.7l0,0l0.2,0.7l0,0l0.3,0.7l0,0l0.4,0.6l0,0l0.5,0.5l0,0l0.6,0.4l0,0l0.7,0.3l0,0l0.7,0.2l0,0l0.7,0.1h0l0.7-0.1l0,0
	l0.7-0.2l0,0l0.7-0.3l0,0l0.6-0.4l0,0l0.5-0.5l0,0l0.4-0.6l0,0l0.3-0.7l0,0l0.2-0.7l0,0l0.1-0.7v0l-0.1-0.7l0,0l-0.2-0.7l0,0
	l-0.3-0.7l0,0l-0.4-0.6l0,0l-0.5-0.5l0,0l-0.6-0.4l0,0l-0.7-0.3l0,0l-0.7-0.2l0,0l-0.7-0.1h0l-0.7,0.1l0,0l-0.7,0.2l0,0l-0.7,0.3
	l0,0l-0.6,0.4l0,0l-0.5,0.5l0,0l-0.4,0.6l0,0l-0.3,0.7l0,0L670,751.9z M790.5,1085L790.5,1085l-0.1,0.7v0l0.1,0.7h0l0.2,0.7h0
	l0.3,0.7h0l0.4,0.6h0l0.5,0.5h0l0.6,0.4h0l0.7,0.3l0,0l0.7,0.2h0l0.7,0.1h0l0.7-0.1h0l0.7-0.2h0l0.7-0.3h0l0.6-0.4h0l0.5-0.5l0,0
	l0.4-0.6h0l0.3-0.7l0,0l0.2-0.7l0,0l0.1-0.7v0l-0.1-0.7h0l-0.2-0.7h0l-0.3-0.7h0l-0.4-0.6h0l-0.5-0.5h0l-0.6-0.4h0l-0.7-0.3l0,0
	l-0.7-0.2h0l-0.7-0.1h0l-0.7,0.1h0l-0.7,0.2h0l-0.7,0.3h0l-0.6,0.4h0l-0.5,0.5l0,0l-0.4,0.6h0l-0.3,0.7l0,0L790.5,1085z
	 M774.9,945.5l0.2,0.7h0l0.3,0.7h0l0.4,0.6h0l0.5,0.5h0l0.6,0.4h0l0.7,0.3l0,0l0.7,0.2h0l0.7,0.1h0l0.7-0.1h0l0.7-0.2h0l0.7-0.3h0
	l0.6-0.4h0l0.5-0.5l0,0l0.4-0.6h0l0.3-0.7l0,0l0.2-0.7l0,0l0.1-0.7v0l-0.1-0.7h0l-0.2-0.7h0l-0.3-0.7h0l-0.4-0.6h0l-0.5-0.5h0
	l-0.6-0.4h0l-0.7-0.3l0,0l-0.7-0.2h0l-0.7-0.1h0l-0.7,0.1h0l-0.7,0.2h0l-0.7,0.3h0l-0.6,0.4h0l-0.5,0.5l0,0l-0.4,0.6h0l-0.3,0.7l0,0
	l-0.2,0.7l0,0l-0.1,0.7v0L774.9,945.5L774.9,945.5z"/>
<path class="st0" d="M985.9,917.3v0.2h-14.1h0v183.9v0.4h70.7h0.1l28.3,28.3l0.1,0.1h28.3h0.1v-14.1v0l14.1-14.1l0,0h14.1h0V777.8
	v-0.6l0,0l-2.7-0.2l0,0l-2.6-0.7l0,0l-2.5-1.1l0,0l-2.2-1.6l0,0l-1.9-1.9l0,0l-1.6-2.2l0,0l-1.1-2.5l0,0l-0.7-2.6l0,0l-0.2-2.7l0,0
	l0.2-2.7l0,0l0.7-2.6l0,0l1.1-2.5l0,0l1.6-2.2l0,0l1.9-1.9l0,0l2.2-1.6l0,0l2.5-1.1l0,0l2.6-0.7l0,0l2.7-0.2v-97.6v-0.2H1071h-0.1
	v14.1v0h-42.4h-0.1v-14.1v0h-56.6h-0.1V832v0.4h14.1h0V917.3z M1082.4,1112.6L1082.4,1112.6l0.6-0.4h0l0.7-0.3h0l0.7-0.2h0l0.7-0.1
	h0l0.7,0.1h0l0.7,0.2l0,0l0.7,0.3h0l0.6,0.4h0l0.5,0.5h0l0.4,0.6h0l0.3,0.7h0l0.2,0.7h0l0.1,0.7v0l-0.1,0.7l0,0l-0.2,0.7l0,0
	l-0.3,0.7h0l-0.4,0.6l0,0l-0.5,0.5h0l-0.6,0.4h0l-0.7,0.3h0l-0.7,0.2h0l-0.7,0.1h0l-0.7-0.1h0l-0.7-0.2l0,0l-0.7-0.3h0l-0.6-0.4h0
	l-0.5-0.5h0l-0.4-0.6h0l-0.3-0.7h0l-0.2-0.7h0l-0.1-0.7v0l0.1-0.7l0,0l0.2-0.7l0,0l0.3-0.7h0l0.4-0.6l0,0L1082.4,1112.6z
	 M996.4,653.1L996.4,653.1l-0.3,0.7l0,0l-0.2,0.7l0,0l-0.1,0.7v0l0.1,0.7l0,0l0.2,0.7l0,0l0.3,0.7l0,0l0.4,0.6l0,0l0.5,0.5l0,0
	l0.6,0.4l0,0l0.7,0.3l0,0l0.7,0.2l0,0l0.7,0.1h0l0.7-0.1l0,0l0.7-0.2l0,0l0.7-0.3l0,0l0.6-0.4l0,0l0.5-0.5l0,0l0.4-0.6l0,0l0.3-0.7
	l0,0l0.2-0.7l0,0l0.1-0.7v0l-0.1-0.7l0,0l-0.2-0.7l0,0l-0.3-0.7l0,0l-0.4-0.6l0,0l-0.5-0.5l0,0l-0.6-0.4l0,0l-0.7-0.3l0,0l-0.7-0.2
	l0,0l-0.7-0.1h0l-0.7,0.1l0,0l-0.7,0.2l0,0l-0.7,0.3l0,0l-0.6,0.4l0,0l-0.5,0.5l0,0L996.4,653.1z M1101.4,658.9L1101.4,658.9
	l0.6-0.4l0,0l0.5-0.5l0,0l0.4-0.6l0,0l0.3-0.7l0,0l0.2-0.7l0,0l0.1-0.7v0l-0.1-0.7l0,0l-0.2-0.7l0,0l-0.3-0.7l0,0l-0.4-0.6l0,0
	l-0.5-0.5l0,0l-0.6-0.4l0,0l-0.7-0.3l0,0l-0.7-0.2l0,0l-0.7-0.1h0l-0.7,0.1l0,0l-0.7,0.2l0,0l-0.7,0.3l0,0l-0.6,0.4l0,0l-0.5,0.5
	l0,0l-0.4,0.6l0,0l-0.3,0.7l0,0l-0.2,0.7l0,0l-0.1,0.7v0l0.1,0.7l0,0l0.2,0.7l0,0l0.3,0.7l0,0l0.4,0.6l0,0l0.5,0.5l0,0l0.6,0.4l0,0
	l0.7,0.3l0,0l0.7,0.2l0,0l0.7,0.1h0l0.7-0.1l0,0l0.7-0.2l0,0L1101.4,658.9z M1000.1,1076.2L1000.1,1076.2l0.7,0.1h0l0.7,0.2l0,0
	l0.7,0.3h0l0.6,0.4h0l0.5,0.5h0l0.4,0.6h0l0.3,0.7h0l0.2,0.7h0l0.1,0.7v0l-0.1,0.7l0,0l-0.2,0.7l0,0l-0.3,0.7h0l-0.4,0.6l0,0
	l-0.5,0.5h0l-0.6,0.4h0l-0.7,0.3h0l-0.7,0.2h0l-0.7,0.1h0l-0.7-0.1h0l-0.7-0.2l0,0l-0.7-0.3h0l-0.6-0.4h0l-0.5-0.5h0l-0.4-0.6h0
	l-0.3-0.7h0l-0.2-0.7h0l-0.1-0.7v0l0.1-0.7l0,0l0.2-0.7l0,0l0.3-0.7h0l0.4-0.6l0,0l0.5-0.5h0l0.6-0.4h0l0.7-0.3h0l0.7-0.2h0
	L1000.1,1076.2z M983,1016.6L983,1016.6l-0.1,0.7l0,0l-0.2,0.7l0,0l-0.3,0.7h0l-0.4,0.6l0,0l-0.5,0.5h0l-0.6,0.4h0l-0.7,0.3h0
	l-0.7,0.2h0l-0.7,0.1h0l-0.7-0.1h0l-0.7-0.2l0,0l-0.7-0.3h0l-0.6-0.4h0l-0.5-0.5h0l-0.4-0.6h0l-0.3-0.7h0l-0.2-0.7h0l-0.1-0.7v0
	l0.1-0.7l0,0l0.2-0.7l0,0l0.3-0.7h0l0.4-0.6l0,0l0.5-0.5h0l0.6-0.4h0l0.7-0.3h0l0.7-0.2h0l0.7-0.1h0l0.7,0.1h0l0.7,0.2l0,0l0.7,0.3
	h0l0.6,0.4h0l0.5,0.5h0l0.4,0.6h0l0.3,0.7h0l0.2,0.7h0L983,1016.6z M974.6,746.6L974.6,746.6l-0.1,0.7v0l0.1,0.7l0,0l0.2,0.7l0,0
	l0.3,0.7l0,0l0.4,0.6l0,0l0.5,0.5l0,0l0.6,0.4l0,0l0.7,0.3l0,0l0.7,0.2l0,0l0.7,0.1h0l0.7-0.1l0,0l0.7-0.2l0,0l0.7-0.3l0,0l0.6-0.4
	l0,0l0.5-0.5l0,0l0.4-0.6l0,0l0.3-0.7l0,0l0.2-0.7l0,0l0.1-0.7v0l-0.1-0.7l0,0l-0.2-0.7l0,0l-0.3-0.7l0,0l-0.4-0.6l0,0l-0.5-0.5l0,0
	l-0.6-0.4l0,0l-0.7-0.3l0,0l-0.7-0.2l0,0l-0.7-0.1h0l-0.7,0.1l0,0l-0.7,0.2l0,0l-0.7,0.3l0,0l-0.6,0.4l0,0l-0.5,0.5l0,0l-0.4,0.6
	l0,0l-0.3,0.7l0,0L974.6,746.6z M1095.1,1079.7L1095.1,1079.7l-0.1,0.7v0l0.1,0.7h0l0.2,0.7h0l0.3,0.7h0l0.4,0.6h0l0.5,0.5h0
	l0.6,0.4h0l0.7,0.3l0,0l0.7,0.2h0l0.7,0.1h0l0.7-0.1h0l0.7-0.2h0l0.7-0.3h0l0.6-0.4h0l0.5-0.5l0,0l0.4-0.6h0l0.3-0.7l0,0l0.2-0.7
	l0,0l0.1-0.7v0l-0.1-0.7h0l-0.2-0.7h0l-0.3-0.7h0l-0.4-0.6h0l-0.5-0.5h0l-0.6-0.4h0l-0.7-0.3l0,0l-0.7-0.2h0l-0.7-0.1h0l-0.7,0.1h0
	l-0.7,0.2h0l-0.7,0.3h0l-0.6,0.4h0l-0.5,0.5l0,0l-0.4,0.6h0l-0.3,0.7l0,0L1095.1,1079.7z M1070.9,1087.5L1070.9,1087.5l-42.4,0h-0.1
	v-14.1v0h42.4h0.1V1087.5z"/>
<path class="st0" d="M918.7,528.5L918.7,528.5l0,8.5v0h3.5h0v22.6v0h-0.1h-52.3v-0.2V436.3h22.6h0v3.5v0h8.5h0v-3.5v0h19.8h0v-8.5v0
	H901h0v-3.5v0h-8.5h0v3.5v0h-22.6h0v-0.2V347h0h-14.1v-0.2V262h0h14.1v-0.2v-80.6h22.6h0v3.5v0h8.5h0v-3.5v0h19.8h0v-8.5v0H901h0
	v-3.5v0h-8.5h0v3.5v0h-22.6h0v-0.2V49.4h0.1h52.3V72v0h-3.5h0v8.5v0h3.5h0v19.8v0h8.5h0V80.6v0h3.5h0v-8.5v0h-3.5h0V49.4v0h0l5.7,0
	h0h8.5h0.2l80.6,0v0V35.2h0.2h84.9v0v14.1h0.2l80.6,0V72v0h-3.5h0v8.5v0h3.5h0v19.8v0h8.5h0V80.6v0h3.5h0v-8.5v0h-3.5h0V49.4v0h0.2
	l80.6,0v0.2v123.1h-22.6h0v-3.5v0h-8.5h0v3.5v0h-19.8h0v8.5v0h19.8h0v3.5v0h8.5h0v-3.5v0h22.6h0v0.2V262h0h14.1v0.2V347h0h-14.1v0.2
	v80.6h-22.6h0v-3.5v0h-8.5h0v3.5v0h-19.8h0v8.5v0h19.8h0v3.5v0h8.5h0v-3.5v0h22.6h0v0.2v123.1h-0.2h-80.6V537v0h3.5h0v-8.5v0h-3.5h0
	v-19.8v0h-8.5h0v19.8v0h-3.5h0v8.5v0h3.5h0v22.6v0h-0.2h-80.6v0v14.1h-0.2h-84.9v0v-14.1h-0.2h-94.8V537v0h3.5h0v-8.5v0h-3.5h0
	v-19.8v0h-8.5h0v19.8v0H918.7z"/>
<path class="st0" d="M823.6,608.3l-0.6-2.4l0,0l-1-2.2l0,0l-1.4-2l0,0l-1.7-1.7l0,0l-2-1.4l0,0l-2.2-1l0,0l-2.4-0.6h0l-2.5-0.2
	h-56.6H753h0l-2.5,0.2h0l-2.4,0.6h0l-2.2,1l0,0l-2,1.4l0,0l-1.7,1.7l0,0l-1.4,2l0,0l-1,2.2l0,0l-0.6,2.4v0l-0.2,2.5v0l0.2,2.5l0,0
	l0.6,2.4l0,0l1,2.2l0,0l1.4,2l0,0l1.7,1.7l0,0l2,1.4l0,0l2.2,1l0,0l2.4,0.6h0l2.5,0.2h56.6h0.1h0l2.5-0.2h0l2.4-0.6h0l2.2-1l0,0
	l2-1.4l0,0l1.7-1.7l0,0l1.4-2l0,0l1-2.2l0,0l0.6-2.4l0,0l0.2-2.5v0L823.6,608.3L823.6,608.3z M751.5,614.8l0.7,0.2h0l0.7,0.1h0
	l0.7-0.1h0l0.7-0.2h0l0.7-0.3h0l0.6-0.4h0l0.5-0.5l0,0l0.4-0.6h0l0.3-0.7l0,0l0.2-0.7v0l0.1-0.7v0l-0.1-0.7l0,0l-0.2-0.7l0,0
	l-0.3-0.7l0,0l-0.4-0.6l0,0l-0.5-0.5h0l-0.6-0.4h0l-0.7-0.3l0,0l-0.7-0.2h0l-0.7-0.1h0l-0.7,0.1h0l-0.7,0.2h0l-0.7,0.3h0l-0.6,0.4h0
	l-0.5,0.5l0,0l-0.4,0.6l0,0l-0.3,0.7v0l-0.2,0.7l0,0l-0.1,0.7v0l0.1,0.7l0,0l0.2,0.7h0l0.3,0.7h0l0.4,0.6h0l0.5,0.5h0l0.6,0.4h0
	L751.5,614.8L751.5,614.8z M785,612.9L785,612.9l-0.4,0.6l0,0l-0.5,0.5h0l-0.6,0.4h0l-0.7,0.3h0l-0.7,0.2h0l-0.7,0.1h0l-0.7-0.1h0
	l-0.7-0.2l0,0l-0.7-0.3h0l-0.6-0.4h0l-0.5-0.5h0l-0.4-0.6l0,0l-0.3-0.7l0,0l-0.2-0.7l0,0l-0.1-0.7v0l0.1-0.7v0l0.2-0.7l0,0l0.3-0.7
	h0l0.4-0.6l0,0l0.5-0.5h0l0.6-0.4h0l0.7-0.3h0l0.7-0.2h0l0.7-0.1h0l0.7,0.1h0l0.7,0.2l0,0l0.7,0.3h0l0.6,0.4h0l0.5,0.5h0l0.4,0.6
	l0,0l0.3,0.7h0l0.2,0.7l0,0l0.1,0.7v0l-0.1,0.7l0,0l-0.2,0.7v0L785,612.9z M813.4,612.9l-0.4,0.6l0,0l-0.5,0.5h0l-0.6,0.4h0
	l-0.7,0.3h0l-0.7,0.2h0l-0.7,0.1h0l-0.7-0.1h0l-0.7-0.2l0,0l-0.7-0.3h0l-0.6-0.4h0l-0.5-0.5h0l-0.4-0.6h0l-0.3-0.7l0,0l-0.2-0.7
	l-0.1-0.7v0v0l0.1-0.7v0l0.2-0.7l0,0l0.3-0.7h0l0.4-0.6l0,0l0.5-0.5h0l0.6-0.4h0l0.7-0.3h0l0.7-0.2h0l0.7-0.1h0l0.7,0.1h0l0.7,0.2
	l0,0l0.7,0.3h0l0.6,0.4h0l0.5,0.5h0l0.4,0.6h0l0.3,0.7h0l0.2,0.7l0,0l0.1,0.7v0l-0.1,0.7l0,0l-0.2,0.7l0,0L813.4,612.9L813.4,612.9z
	"/>
<path class="st0" d="M1041.3,634.2h59.4v-0.1v-42.4h-21.2h0v8.5v0h0h3.5v8.5v0h0h-3.5v8.5v0h0h-8.5v-8.5v0h0h-3.5v-8.5v0h0h3.5v-8.5
	v0h-29.7h-0.1v42.4v0.1H1041.3z"/>
<path class="st2" d="M695.5,641.7L695.5,641.7l-1.4,0.4l0,0l-1.5,0.1l0,0l-14.1-0.2l0,0l-1.5-0.1l0,0l-1.4-0.4l0,0l-1.3-0.6l0,0
	l-1.2-0.9l0,0l-1-1.1l0,0l-0.8-1.2l0,0l-0.6-1.3l0,0l-0.4-1.4v0l-0.1-1.5l0-0.1l0.6-46.7v0l0.1-1.5l0,0l0.4-1.4l0,0l0.6-1.3l0,0
	l0.9-1.2l0,0l1.1-1l0,0l1.2-0.8l0,0l1.3-0.6l0,0l1.4-0.4l0,0l1.5-0.1l0,0l14.1,0.2h0l1.5,0.1l0,0l1.4,0.4l0,0l1.3,0.6l0,0l1.2,0.9
	l0,0l1,1.1l0,0l0.8,1.2l0,0l0.6,1.3l0,0l0.4,1.4l0,0l0.1,1.5l0,0.1l-0.6,46.7v0l-0.1,1.5l0,0l-0.4,1.4l0,0L700,638h0l-0.9,1.2l0,0
	l-1.1,1h0l-1.2,0.8l0,0L695.5,641.7z M690.5,586.8L690.5,586.8l-0.1,0.7v0l-0.2,0.7l0,0l-0.3,0.7l0,0l-0.4,0.6l0,0l-0.5,0.5l0,0
	l-0.6,0.4l0,0l-0.7,0.3l0,0l-0.7,0.2h0l-0.7,0.1h0l-0.7-0.1h0l-0.7-0.2h0l-0.7-0.3h0l-0.6-0.4l0,0l-0.5-0.5l0,0l-0.4-0.6l0,0
	l-0.3-0.7l0,0l-0.2-0.7v0l-0.1-0.7l0,0l0.1-0.7l0,0l0.2-0.7v0l0.3-0.7l0,0l0.4-0.6l0,0l0.5-0.5l0,0l0.6-0.4l0,0l0.7-0.3h0l0.7-0.2h0
	l0.7-0.1h0l0.7,0.1l0,0l0.7,0.2l0,0l0.7,0.3l0,0l0.6,0.4l0,0l0.5,0.5v0l0.4,0.6l0,0l0.3,0.7v0l0.2,0.7l0,0L690.5,586.8z M687,637.6
	l-0.7,0.2h0l-0.7,0.1h0l-0.7-0.1l0,0l-0.7-0.2h0l-0.7-0.3l0,0l-0.6-0.4l0,0l-0.5-0.5l0,0l-0.4-0.6l0,0l-0.3-0.7l0,0l-0.2-0.7v0
	l-0.1-0.7l0,0l0.1-0.7l0,0l0.2-0.7l0,0l0.3-0.7v0l0.4-0.6l0,0l0.5-0.5l0,0l0.6-0.4l0,0l0.7-0.3l0,0l0.7-0.2l0,0l0.7-0.1l0,0l0.7,0.1
	l0,0l0.7,0.2h0l0.7,0.3l0,0l0.6,0.4l0,0l0.5,0.5l0,0l0.4,0.6l0,0l0.3,0.7l0,0l0.2,0.7v0l0.1,0.7v0l-0.1,0.7v0l-0.2,0.7l0,0l-0.3,0.7
	l0,0l-0.4,0.6l0,0l-0.5,0.5l0,0l-0.6,0.4h0L687,637.6L687,637.6z M677.3,615.7l-0.1,5l0,0l17,0.2l0,0l0.1-5l0,0L677.3,615.7
	C677.3,615.7,677.3,615.7,677.3,615.7z M690.3,596.8l-0.1,4.2l0,0l-12.7-0.2l0,0l-0.1,5l0,0l17,0.2l0,0l0.1-9.2l0,0L690.3,596.8
	L690.3,596.8z M688.8,608.8l5.7,0.1l0,0l-0.1,4.2l0,0l-5.7-0.1l0,0L688.8,608.8C688.8,608.8,688.8,608.8,688.8,608.8z M677.4,612.9
	l5.7,0.1l0,0l0.1-4.2l0,0l-5.7-0.1l0,0L677.4,612.9L677.4,612.9z"/>
</svg>
